<svg xmlns="http://www.w3.org/2000/svg" viewBox="0 0 76.61 125.04"><defs><style>.cls-1{fill:#343235;}.cls-2{fill:#fff;}.cls-3{fill:#efd32c;}.cls-4,.cls-6,.cls-7{fill:none;}.cls-4,.cls-6,.cls-7,.cls-8{stroke:#000;stroke-miterlimit:10;}.cls-5{fill:#ff630a;}.cls-6{stroke-width:4.19px;}.cls-7,.cls-8{stroke-width:2.5px;}</style></defs><g id="Layer_2" data-name="Layer 2"><g id="Layer_1-2" data-name="Layer 1"><ellipse class="cls-1" cx="42.86" cy="114.9" rx="22.97" ry="8.1"/><ellipse class="cls-1" cx="65.35" cy="121.05" rx="11.3" ry="3.87" transform="translate(-10.75 6.46) rotate(-5.23)"/><path class="cls-2" d="M58.84,81.18l.09-.29a22.51,22.51,0,0,0,.63-6.35c0-4.79-.13-9.64-1.48-14.24-1.41-4.83-4.11-9.21-5.55-14-1.78-6-1.54-12.37-1.78-18.61S49.67,14.89,46.11,9.75C41,2.37,30.39-.52,22.14,3.05S8.77,16.14,10.1,25c.65,4.37,2.66,8.41,4.68,12.35a2,2,0,0,1,.31,1.34,2,2,0,0,1-.67.9,47.59,47.59,0,0,0-9.86,13.2c-.19-.77,2.66-3.68,1.89-3.89,0,0-3.55,2.26-3.58,2.28a.2.2,0,0,0,0,.08C1.4,57.82.51,64.4,1.43,71.07a44.56,44.56,0,0,0,2.3,9c3.07,8.16,8.51,15.52,16,20.11A23,23,0,0,0,32.1,104c4.87-.12,9.5-2.35,13.27-5.43a58.31,58.31,0,0,0,9.68-10.87A23.41,23.41,0,0,0,58.84,81.18Z"/><path d="M57.07,80.61c.89-2.85.63-6.26.64-9.3a43.09,43.09,0,0,0-1.07-9.5c-1.12-4.62-3.79-9.13-5.36-13.8-2.81-8.09-1.64-17.18-2.51-25.12-.62-6.19-2.67-12.56-7.9-16.23C28.73-1.92,13.22,5.55,11.4,20.13,10.71,25.78,13,31,15.56,36a7,7,0,0,1,.87,2.17,2.53,2.53,0,0,1-.23,1.33,4.8,4.8,0,0,1-1.12,1.3A40.08,40.08,0,0,0,11,45.23a69.63,69.63,0,0,0-7.1,11.49l-.52-3.61a1.91,1.91,0,0,1,.15-1.19,26.68,26.68,0,0,1,1.84-2.74A1.4,1.4,0,0,0,5.48,49s0,0,0,.1A1,1,0,0,0,7,49.92c-1,.62-2.43,1.49-3.47,2.14a1.11,1.11,0,0,0,.33-.44c.06-.2,0,0,0,0l-.39,1.73C-.21,68.07,3.71,84.43,15,94.78c12.29,11.07,24.09,9.66,34.45-3,2.62-3.39,6.12-7.18,7.59-11.14Zm3.54,1.14c-1.82,5-5.06,8.43-8.2,12.47-6.17,7.8-16.62,14-26.73,10.48C11.37,99.84,2.15,85.42.29,71c-.8-6.71.18-13.33,1.51-19.84a1.22,1.22,0,0,1,.48-.79l.07-.05.19-.13c.23-.14.88-.59,1.12-.74s1.61-1,1.88-1.23a1.83,1.83,0,0,1,.67-.34A1.27,1.27,0,0,1,7.7,49.25a7.78,7.78,0,0,1-1.4,2.66,5.28,5.28,0,0,0-.52,1s0,.13,0-.33l-2.31-.29a50.09,50.09,0,0,1,10.38-13.9s0,.14,0,.12C12.15,35,10.26,31.61,9.27,27.74,4.43,7.87,25.38-7.78,42.69,4.14c6,4.09,8.63,11.51,9.33,18.39S52.23,36,53.37,42.32c1,6.6,5.05,12,6.73,18.62a46.52,46.52,0,0,1,1.25,10.28c0,3.57.34,7-.74,10.53Z"/><path d="M16.94,50.93c-.39-3.62,0-8.21-2.37-11.11l1.77-1.77c1.61,2.11,1.76,4.24,1.85,6.63,0,2.11-.1,4.19-.22,6.25Z"/><path d="M12,70.1a39.5,39.5,0,0,0-1.94-4.38c-.91-1.29-2.24-2.29-3.19-3.59a37.65,37.65,0,0,1-5-8.65l2.31-.92A32.13,32.13,0,0,0,10.49,64c1.38,1.64,1.71,4,2.38,5.79L12,70.1Z"/><path d="M9.46,81.15c-3.17-.06-5.69-2.44-8-4.42l1.93-1.59c1.52,2.16,3.35,4.86,6,5.58l0,.43Z"/><polygon points="13.5 90.33 6.04 87.14 7.28 84.97 13.82 89.78 13.5 90.33 13.5 90.33"/><path class="cls-3" d="M37.2,17.7s12.55,2.11,11.4,4.45c0,0-12.88,16.19-30.21,8.3,0,0,.12-.79,11.94-10.55,0,0,1-.85,2.42-4.78C32.75,15.12,32.87,14.33,37.2,17.7Z"/><path class="cls-4" d="M32.75,15.12c-1.39,3.93-2.42,4.78-2.42,4.78C18.51,29.66,18.39,30.45,18.39,30.45c17.33,7.89,30.21-8.3,30.21-8.3,1.15-2.34-11.4-4.45-11.4-4.45C32.87,14.33,32.75,15.12,32.75,15.12Z"/><circle id="eye2" cx="20.5" cy="18.09" r="2.5"/><circle id="eye1" cx="40.25" cy="12.16" r="2.5"/><path d="M18.29,30A60.08,60.08,0,0,0,33,24.84a43.29,43.29,0,0,1,15.57-3.18l0,1A48.43,48.43,0,0,0,33.52,26a44.83,44.83,0,0,1-7.33,3A73.37,73.37,0,0,1,18.5,31l-.21-1Z"/><path class="cls-5" d="M26.82,120.55a2,2,0,0,1-.68.35,2.06,2.06,0,0,1-1.17-.15,15.3,15.3,0,0,1-6.33-3.82,23,23,0,0,0,4.11-3.27,2.81,2.81,0,0,0,.57-.76,2.75,2.75,0,0,0,.14-1.07c0-2.3,0-4.6,0-6.89l5,1a34.35,34.35,0,0,0,.67,6.15,7.88,7.88,0,0,0,.4,1.44,8.74,8.74,0,0,0,2.9,3.27Z"/><path class="cls-6" d="M23.45,104.94c0,2.29,0,4.59,0,6.89a2.75,2.75,0,0,1-.14,1.07,2.81,2.81,0,0,1-.57.76,23,23,0,0,1-4.11,3.27A15.3,15.3,0,0,0,25,120.75a2.06,2.06,0,0,0,1.17.15,2,2,0,0,0,.68-.35l5.59-3.75a8.74,8.74,0,0,1-2.9-3.27,7.88,7.88,0,0,1-.4-1.44,34.35,34.35,0,0,1-.67-6.15Z"/><path class="cls-5" d="M70.26,83.56c.1,2.66,1.43,5.21,1.18,7.86a12.31,12.31,0,0,1-2.38,5.49,35.47,35.47,0,0,1-6.9,8c-1.25,1-2.78,2-4.39,1.75A5.17,5.17,0,0,1,54.83,105a11.5,11.5,0,0,1-1.08-1.32,11.2,11.2,0,0,1-2-5.67,14.07,14.07,0,0,1,.41-3.22c.19-1.16.34-2.33.61-3.48A10.8,10.8,0,0,1,54.64,87a5.49,5.49,0,0,1,.64-.72c2-2,5.06-2.41,7.52-3.81S66.91,79,69.4,78.1a4.21,4.21,0,0,1,.91,2.62C70.35,81.67,70.23,82.61,70.26,83.56Z"/><path class="cls-7" d="M54.64,87a10.8,10.8,0,0,0-1.83,4.24c-.27,1.15-.42,2.32-.61,3.48A14.07,14.07,0,0,0,51.79,98a11.2,11.2,0,0,0,2,5.67A11.5,11.5,0,0,0,54.83,105a5.17,5.17,0,0,0,2.94,1.73c1.61.22,3.14-.72,4.39-1.75a35.47,35.47,0,0,0,6.9-8,12.31,12.31,0,0,0,2.38-5.49c.25-2.65-1.08-5.2-1.18-7.86,0-1,.09-1.89,0-2.84a4.21,4.21,0,0,0-.91-2.62c-2.49.93-4.29,3.1-6.6,4.41s-5.5,1.84-7.52,3.81A5.49,5.49,0,0,0,54.64,87Z"/><path class="cls-8" d="M64.13,90.59h0a8.53,8.53,0,0,0-.72,1c-.42.69-.9,1.51-1.31,2.32-.07.15-1,2.32-.73,2A10.31,10.31,0,0,0,63,93.71c.57-1,1.11-2.14,1.62-3.29C64.54,90.25,64.35,90.35,64.13,90.59Z"/><path d="M55.36,49.17a31.08,31.08,0,0,1,4.36,5.91,35.43,35.43,0,0,1,3.65,7.73,36.33,36.33,0,0,1-2.15,14L58.69,76a45.86,45.86,0,0,0,1.78-12.42c-.52-2.49-1.94-4.84-3.06-7.29a60,60,0,0,1-2.86-6.62l.81-.53Z"/><path class="cls-2" d="M58.53,57.68c.93,2,2.36,3.85,2.44,5.91a39.35,39.35,0,0,1-.56,7.11"/></g></g></svg>