<svg xmlns="http://www.w3.org/2000/svg" viewBox="0 0 88.35 126.74"><defs><style>.cls-1{fill:#343235;}.cls-2{fill:#fff;}.cls-3{fill:#ff6506;}.cls-4,.cls-6{stroke:#000;stroke-miterlimit:10;}.cls-5{fill:#efd32c;}.cls-6{fill:none;}</style></defs><g id="Layer_2" data-name="Layer 2"><g id="Layer_1-2" data-name="Layer 1"><ellipse class="cls-1" cx="39.64" cy="116.78" rx="26.7" ry="9.7"/><path class="cls-2" d="M60.94,90.08l3-6a38.54,38.54,0,0,0,2.9-11.6c.28-3.23-1-7.14-1.69-10.33-1.62-7.32-4.69-13.73-8-20.42a188.55,188.55,0,0,1-8.57-20.62c-1.82-5.27-3.55-10.86-7.52-14.78C35.91,1.19,27.34.08,20.76,3.26A21.22,21.22,0,0,0,9.32,20.78a22.86,22.86,0,0,0,1.8,10.46c1.24,2.86,3.1,5.69,2.76,8.79A36.09,36.09,0,0,0,4.14,38a1.87,1.87,0,0,0-.94.11c-1,.51-.32,2,.24,2.94,1.71,2.94,1.13,6.67.08,9.92S1,57.41,1.09,60.82c.11,4,2.32,7.57,3.26,11.43C5,75.05,5,78,6,80.71a21.59,21.59,0,0,0,4.93,7.51c5.59,6,12.64,11,20.64,12.88,9.72,2.33,17.46-.72,25.41-6l4-5"/><path d="M60.49,89.85c1.07-3,2.58-5.8,3.42-8.85a45.49,45.49,0,0,0,1.44-9.11c0-2.83-1-5.85-1.75-9a61.11,61.11,0,0,0-2.75-9c-2.25-5.86-5.36-11.46-8-17.42s-4.9-12-6.93-18.09A36.18,36.18,0,0,0,42.07,10C37.25,2.36,25.84.76,18.68,6.13a20.26,20.26,0,0,0-8.19,15.44c-.34,4.81,1.5,9,3.47,13.35a8.19,8.19,0,0,1,.31,5.57h-.56a13.45,13.45,0,0,1-3.52-.62A30.78,30.78,0,0,0,3.65,39l0,0a4.63,4.63,0,0,0,.75,1.87C8.22,48,1.23,55,2.32,62.18c.55,3.38,2.5,6.77,3.26,10.28s.7,7.17,2.5,10.15c7.37,11.24,21.68,20.6,35.51,17.55a46.75,46.75,0,0,0,13.07-5.5,16.57,16.57,0,0,1,3.89-4.9l.78.63C59.16,94.62,55.1,97.32,51,99.54a27.31,27.31,0,0,1-21.81,2.09,40.68,40.68,0,0,1-13.06-7c-3.88-3.16-7.5-6.52-10.1-10.9C4.09,80.5,4,76.52,3.32,73S.73,66.32.14,62.51a16.42,16.42,0,0,1,.91-7.61c1.37-4.27,3.73-9,1.64-13.19a8.49,8.49,0,0,1-.84-1.83,2.82,2.82,0,0,1-.08-1.36,1.88,1.88,0,0,1,1.14-1.37A2.79,2.79,0,0,1,4.24,37c.92.09,1.87.16,2.77.31,2.41.48,5,.69,7,2.24l-.67.41C13,36.81,11.2,34.34,10,31.36a23.33,23.33,0,0,1,.59-19.65C16,.17,31.17-3.9,41.26,4.33c4,3.27,6.15,8.33,7.8,12.93,2.08,6.09,4.33,12,6.94,17.82,3.86,8.67,8.9,17.48,10.85,27,.63,3.05,1.7,6.24,1.54,9.87a37.69,37.69,0,0,1-2.27,9.73C65,84.79,63.05,87.5,61.39,90.3l-.9-.45Z"/><path class="cls-3" d="M22.94,99.11v8a2.14,2.14,0,0,1-.22,1.15,2.16,2.16,0,0,1-.79.61,36.59,36.59,0,0,0-3.62,2c.82,1.51,3.61,2.77,5.31,2.81a9.6,9.6,0,0,0,3.69-.92L31.88,111l-4.27-2.55a1.47,1.47,0,0,1-.51-.41,1.56,1.56,0,0,1-.18-.91l0-5.29a1,1,0,0,0-.7-1.16Z"/><path d="M23.21,99.54c.22,2.78.48,5.13.47,7.67a3,3,0,0,1-.16,1.15,2,2,0,0,1-.89,1c-1.33.75-2.74,1.28-4,2,0,0,.15-.64.14-.64a8.27,8.27,0,0,0,4.41,2.09c1.71.23,3.21-.58,4.93-1.13,1.19-.41,2.38-.78,3.59-1.12l-.07.9c-.77-.47-3.92-2.31-4.61-2.77a1.6,1.6,0,0,1-.59-1.33v-2.14c0-.69,0-2.52,0-3.19,0-.39,0-.63-.08-.67-1-.55-2.16-1.15-3.17-1.82Zm-.53-.85c1.06.39,2.24.83,3.3,1.33a4,4,0,0,1,1.12.66,1.75,1.75,0,0,1,.36,1.36c0,1.52,0,3.77,0,5.3-.05.65.59.74,1.06,1.08l3.65,2.18.76.45c-1.37.74-2.78,1.46-4.19,2.1-1.7.76-3.76,1.83-5.81,1.46a6.81,6.81,0,0,1-5-3.41l-.16-.37a21.24,21.24,0,0,1,4.13-2.7c.42-.3.33-.4.37-.92,0-2.86.24-5.92.46-8.52Z"/><path class="cls-3" d="M53.59,93.61a3.26,3.26,0,0,0,.15,1.51,84.12,84.12,0,0,1,2.56,15.35,2.14,2.14,0,0,1-.88,2.16l-5.33,5.27c-.89.88-2.58,2.32-2.48,3.65,3.67.75,7.54.86,11.25,1.46s7.54,1.36,11.28,2.24a2.24,2.24,0,0,0,2.77-.81,24.43,24.43,0,0,1,8.32-5.65c2.22-.9,4.69-1.56,6.27-3.36L65.57,109a2.36,2.36,0,0,1-1-.45,2.47,2.47,0,0,1-.55-1.11A85,85,0,0,0,56.4,89.61l-2.26,3a2.67,2.67,0,0,0-.52.89Z"/><path d="M54.12,93.73a4,4,0,0,0,.29,1.67A79.5,79.5,0,0,1,57,109.08a20.23,20.23,0,0,1,.13,2.1,3.23,3.23,0,0,1-1.26,2.14c-1.4,1.38-4.27,4.12-5.72,5.46-.79.76-1.92,1.66-2,2.73l-.4-.45c3.54.41,7.12.37,10.79.78,4.09.55,8.86,1.64,12.81,2.23a12.38,12.38,0,0,0,1.46-1.34,23.7,23.7,0,0,1,9.76-5.46,12.23,12.23,0,0,0,4.6-2.17l.23.81c-3.61-.89-7.2-1.87-10.78-2.86s-7.15-2-10.71-3.12a6.08,6.08,0,0,1-1.51-.57,2.62,2.62,0,0,1-1-1.6A95.94,95.94,0,0,0,56,89.85l.83.06-1.46,2a9.51,9.51,0,0,0-1.22,1.85Zm-1-.25a7.89,7.89,0,0,1,1.45-2.22c.3-.37,1.64-2.19,1.93-2.54A78.22,78.22,0,0,1,64,104.62c.42.94.65,2.67,1.24,3.39,7.43,2.27,15,4.4,22.41,6.94l.71.25-.47.57c-2.36,3.07-6.37,3.55-9.29,5.69a25.83,25.83,0,0,0-4.93,4.1,3.42,3.42,0,0,1-1.76,1.1,4.18,4.18,0,0,1-1.93-.09c-3.93-.8-7.88-1.67-11.8-2.55-3.58-.67-7.4-1-11-2.09l0-.34c-.07-1.66,1.14-2.71,2.1-3.77L52,115l2.79-2.8c.36-.4.72-.65.77-1.13a6.88,6.88,0,0,0,0-.86,93.82,93.82,0,0,0-1.75-12.6l-.43-1.91a4.91,4.91,0,0,1-.23-2.21Z"/><path class="cls-4" d="M62.49,113.67a1.87,1.87,0,0,0-.25,2.87c.93.95,2.75,1.39,4,1.79.63.21,1.43.34,1.84-.17a1.62,1.62,0,0,0-.13-1.7c-.9-1.75-2.47-2-4.2-2.72a2,2,0,0,0-.85-.19A1.12,1.12,0,0,0,62.49,113.67Z"/><path d="M15.89,88.29A16.3,16.3,0,0,1,12,87.8c-1.84-.89-3-3.08-4.58-4.27-.59-.42-1.24-.88-1.81-1.33l.54-.84A16.78,16.78,0,0,1,8.87,83c1.38,1.05,2.27,2.55,3.61,3.53A21.25,21.25,0,0,1,16,87.86l-.1.43Z"/><path d="M12.35,77.78c-3-.16-5.77-2.07-7.71-4.33l.62-.77c2.59,1.4,5.14,2.63,7.28,4.66l-.19.44Z"/><path d="M17.19,68.68c-1.68-3.62-4-7.5-7.74-9a5.36,5.36,0,0,1-2.88-2.23l-.8-1.22A38.88,38.88,0,0,1,3,51.07l.81-.59c2,1.61,4.1,4.32,5.76,6,5.56,1.69,6.74,7.21,8.15,12l-.5.2Z"/><path d="M22.23,53.64c-2.84-5.09-6.47-9.29-9.88-14l1.18-1.17A24.22,24.22,0,0,1,17,41.35c3.16,3.19,6.06,7.5,5.61,12.21l-.37.08Z"/><circle id="eye2" cx="16.44" cy="19.58" r="2.5"/><circle id="eye1" cx="38.78" cy="11.91" r="2.5"/><path class="cls-5" d="M33.88,17s12.66,1.36,11.65,3.76c0,0-11.88,16.94-29.64,10.11,0,0,.07-.8,11.26-11.24,0,0,1-.93,2.14-4.93C29.29,14.68,29.36,13.88,33.88,17Z"/><path class="cls-6" d="M29.29,14.68c-1.15,4-2.14,4.93-2.14,4.93C16,30.05,15.89,30.85,15.89,30.85c17.76,6.83,29.64-10.11,29.64-10.11,1-2.4-11.65-3.76-11.65-3.76C29.36,13.88,29.29,14.68,29.29,14.68Z"/><path d="M15.75,30.38a60,60,0,0,0,14.38-6,43.58,43.58,0,0,1,15.35-4.11l.1,1a48.76,48.76,0,0,0-14.87,4.23,44.34,44.34,0,0,1-7.14,3.46A77,77,0,0,1,16,31.34l-.27-1Z"/></g></g></svg>