<svg xmlns="http://www.w3.org/2000/svg" viewBox="0 0 72.32 130.95"><defs><style>.cls-1{fill:#fff;}.cls-2{fill:#343235;}.cls-3{fill:#f46a16;}.cls-4,.cls-5,.cls-6,.cls-7,.cls-8{fill:none;stroke:#000;stroke-miterlimit:10;}.cls-4{stroke-width:1.62px;}.cls-5{stroke-width:1.89px;}.cls-7{stroke-width:2.75px;}.cls-8{stroke-width:2.02px;}.cls-9{fill:#efd32c;}</style></defs><g id="Layer_2" data-name="Layer 2"><g id="Layer_1-2" data-name="Layer 1"><path class="cls-1" d="M59.92,65a39.27,39.27,0,0,1,0,4.34,31.62,31.62,0,0,0-.27,4c.08,1.11.71,2.2.38,3.28a7.54,7.54,0,0,0-.61,3.51,1.51,1.51,0,0,0,1.84,1,1.53,1.53,0,0,0,1-1.85,2.89,2.89,0,0,1,.31-1.08,8.52,8.52,0,0,0,.46-1.46,5,5,0,0,0-.07-2A8.7,8.7,0,0,1,62.62,73c0-1.29.22-2.6.29-3.89a39,39,0,0,0,0-4.19c-.08-1.92-3.09-1.93-3,0Z"/><path class="cls-1" d="M63.34,77.93a42.27,42.27,0,0,1,.1-5.28c.18-1.71.71-3.44.24-5.19a1.5,1.5,0,0,0-2.9.8,5,5,0,0,1,0,1.92c-.14.89-.29,1.77-.38,2.66a43.2,43.2,0,0,0-.08,5.09,1.5,1.5,0,0,0,3,0Z"/><path class="cls-1" d="M61.22,69.94a13.64,13.64,0,0,1,0,1.43q0,.36-.06.72v.1c0,.16,0,.13,0-.1a1.13,1.13,0,0,1-.06.36,13.41,13.41,0,0,1-.77,2.7,1.52,1.52,0,0,0,.16,1.16,1.5,1.5,0,0,0,.89.69,1.56,1.56,0,0,0,1.16-.15,1.82,1.82,0,0,0,.69-.9,14,14,0,0,0,1-6,1.5,1.5,0,0,0-3,0Z"/><ellipse class="cls-2" cx="38.42" cy="119.49" rx="22.97" ry="8.1"/><ellipse class="cls-2" cx="50.38" cy="125.17" rx="22.02" ry="5.43" transform="translate(-11.19 5.11) rotate(-5.23)"/><path class="cls-3" d="M24.41,124.9a2,2,0,0,1-.49,0,7.72,7.72,0,0,1-2.59-1.12c-2-1.05-4.79-2.05-6.43-3.69-1-1,6-5,6-5s0-8,.48-8.1,5,.81,5.91.8c-.38.82-.39,7.38-.39,8.3,0,1.51,3.85,3.38,4.76,4.52a1,1,0,0,1,.21.42c0,.35-.32.61-.63.78C29.3,122.87,26.62,124.63,24.41,124.9Z"/><path class="cls-4" d="M27.29,107.8c0-.07.07-.1.11-.07S27.42,107.8,27.29,107.8Z"/><path class="cls-4" d="M27.29,107.8c-.87,0-5.49-.89-5.91-.8s-.48,8.1-.48,8.1-7,4-6,5c1.64,1.64,4.4,2.64,6.43,3.69a7.72,7.72,0,0,0,2.59,1.12,2,2,0,0,0,.49,0c2.21-.27,4.89-2,6.83-3.08.31-.17.67-.43.63-.78a1,1,0,0,0-.21-.42c-.91-1.14-4.76-3-4.76-4.52C26.9,115.18,26.91,108.62,27.29,107.8Z"/><path class="cls-3" d="M66.89,103.2c-3.54,2.47-8.16,5-12.59,4.9a.83.83,0,0,1-.35,0,1,1,0,0,1-.31-.35,11.72,11.72,0,0,1-1.56-3.55,7.85,7.85,0,0,1,1-5.44c.83-1.29,1.69-2.57,2.44-3.91s1.51-3.34,3-4.1c1.11-.55,2.66-.24,3.86-.39L68,89.6c2-.25,1.89-.26,2,1.67a39.62,39.62,0,0,1,.21,4.07,16.08,16.08,0,0,1-2.44,7A2.86,2.86,0,0,1,66.89,103.2Z"/><path class="cls-5" d="M54,108.05a.83.83,0,0,0,.35,0c4.43.05,9.05-2.43,12.59-4.9a2.86,2.86,0,0,0,.85-.81,16.08,16.08,0,0,0,2.44-7A39.62,39.62,0,0,0,70,91.27c-.11-1.93,0-1.92-2-1.67l-5.6.71c-1.2.15-2.75-.16-3.86.39-1.52.76-2.24,2.71-3,4.1S53.87,97.42,53,98.71a7.85,7.85,0,0,0-1,5.44,11.72,11.72,0,0,0,1.56,3.55A1,1,0,0,0,54,108.05Z"/><path d="M25.78,120.05c-.05.07-.16.11-.23.16l-.48.3c-.32.2-.65.39-1,.57,0,0-.07,0-.11,0a.18.18,0,0,1-.09-.06l-.57-.55a1.52,1.52,0,0,1-.31-.36,1.16,1.16,0,0,1,0-.91l.27-1a.64.64,0,0,1,0-.07.27.27,0,0,1,.13,0h1a.36.36,0,0,1,.18,0,.44.44,0,0,1,.13.14c.2.34.39.68.59,1C25.5,119.41,25.91,119.91,25.78,120.05Z"/><path class="cls-6" d="M23.34,118.14a.64.64,0,0,0,0,.07l-.27,1a1.16,1.16,0,0,0,0,.91,1.52,1.52,0,0,0,.31.36l.57.55a.18.18,0,0,0,.09.06s.07,0,.11,0c.33-.18.66-.37,1-.57l.48-.3c.07,0,.18-.09.23-.16s-.28-.64-.37-.79c-.2-.33-.39-.67-.59-1a.44.44,0,0,0-.13-.14.36.36,0,0,0-.18,0h-1A.27.27,0,0,0,23.34,118.14Z"/><path d="M63.88,95.2a1.09,1.09,0,0,1,.88-.09.32.32,0,0,1,.13.1.29.29,0,0,1,0,.16l0,1.34a1.7,1.7,0,0,1-.1.78,1.57,1.57,0,0,1-.43.53,9.47,9.47,0,0,1-4.23,2.73.07.07,0,0,1-.1,0c-.09-.19.33-.95.4-1.08a14.45,14.45,0,0,1,.77-1.39,15.28,15.28,0,0,1,1.92-2.47A2.74,2.74,0,0,1,63.88,95.2Z"/><path class="cls-6" d="M60.09,100.71c-.09-.19.33-.95.4-1.08a14.45,14.45,0,0,1,.77-1.39,15.28,15.28,0,0,1,1.92-2.47,2.74,2.74,0,0,1,.7-.57,1.09,1.09,0,0,1,.88-.09.32.32,0,0,1,.13.1.29.29,0,0,1,0,.16l0,1.34a1.7,1.7,0,0,1-.1.78,1.57,1.57,0,0,1-.43.53,9.47,9.47,0,0,1-4.23,2.73A.07.07,0,0,1,60.09,100.71Z"/><path class="cls-1" d="M58,84.63a35,35,0,0,1-3.42,8.65c-2.9,5.11-6,9.44-11.58,11.67a35.11,35.11,0,0,1-11.13,2.42c-.7,0-1.4,0-2.1,0-3.07,0-6.47.48-9.32-.85a24,24,0,0,1-4.54-3c-4.21-3.3-8.18-6.62-9.45-12.09-.52-2.21-.58-4.6-1.79-6.51C2.33,81.22,2.15,78.64,3.4,74.3,1.35,68.1.32,61,3,54.83c1.92-4.48,5.59-8,9.49-10.84,2.93-2.11,7.54-4.74,7-9-.81-6.77-4.92-16.61-1.59-23.25C20,7.62,25.63,3.66,30,2.63c3.23-.76,6.25-1.78,9.59-.92,17.23,4.46,18.93,22,18.27,37-.16,3.56-.71,7-.09,10.53s1.8,6.87,2.09,10.48c0,.14,0,.28,0,.43a94.27,94.27,0,0,1-.19,13A67,67,0,0,1,58,84.63Z"/><path class="cls-7" d="M59.86,59.73c-.29-3.61-1.47-6.93-2.09-10.48s-.07-7,.09-10.53c.66-15-1-32.55-18.27-37-3.34-.86-6.36.16-9.59.92-4.37,1-10,5-12.1,9.1-3.33,6.64.78,16.48,1.59,23.25.51,4.27-4.1,6.9-7,9C8.56,46.8,4.89,50.35,3,54.83.32,61,1.35,68.1,3.4,74.3c-1.25,4.34-1.07,6.92,1.28,10.64,1.21,1.91,1.27,4.3,1.79,6.51,1.27,5.47,5.24,8.79,9.45,12.09a24,24,0,0,0,4.54,3c2.85,1.33,6.25.83,9.32.85.7,0,1.4,0,2.1,0A35.11,35.11,0,0,0,43,105c5.63-2.23,8.68-6.56,11.58-11.67A35,35,0,0,0,58,84.63a67,67,0,0,0,1.7-11.45,94.27,94.27,0,0,0,.19-13C59.89,60,59.88,59.87,59.86,59.73Z"/><path class="cls-8" d="M57.9,84.73l.11-.1a22.27,22.27,0,0,0,5.85-7.79,14.9,14.9,0,0,0,.39-8.72c-.74-3.23-2.65-5.63-4.35-8.39"/><path d="M23.11,51.82a11.86,11.86,0,0,0,.08-8.16A45,45,0,0,0,19.13,36l0-.11-1.7-9.1,1-.21,2.36,9-.12-.28c3.53,4.66,5.78,11.3,3,16.83l-.48-.3Z"/><path d="M14.48,68.09a31.79,31.79,0,0,0-1.05-5.31c-1-2.39-2.39-4.9-3.59-7.3S8.7,49.88,8.4,47.19l1-.19c.54,1.79.79,3.63,1.15,5.36A12.64,12.64,0,0,0,11.87,56a65.63,65.63,0,0,1,2.57,6.45A49.51,49.51,0,0,1,15.11,68l-.63.1Z"/><path d="M9.77,77.58c-2.34,0-4.95-1-6.2-3.12-.44-.63-.81-1.26-1.21-1.86l.76-.66a36.09,36.09,0,0,0,3,3A24.47,24.47,0,0,0,10,76.61l-.25,1Z"/><path d="M9.79,88.17a12.91,12.91,0,0,1-3.43-.53,1.73,1.73,0,0,1-.44-.14C5,87,4.73,85.87,4.31,85c-.19-.33-1.14-2.15-1.34-2.52L3.82,82l1.28,2a22,22,0,0,0,1.39,2.36A14.17,14.17,0,0,1,10,87.2l-.21,1Z"/><path class="cls-9" d="M43.89,17.28s12.14,3.83,10.67,6c0,0-15,14.25-31.06,4,0,0,.22-.76,13.28-8.79,0,0,1.14-.7,3.06-4.4C39.84,14.11,40.07,13.35,43.89,17.28Z"/><path class="cls-6" d="M39.84,14.11c-1.92,3.7-3.06,4.4-3.06,4.4-13.06,8-13.28,8.79-13.28,8.79,16.06,10.22,31.06-4,31.06-4,1.47-2.16-10.67-6-10.67-6C40.07,13.35,39.84,14.11,39.84,14.11Z"/><circle id="eye2" cx="27.3" cy="15.36" r="2.5"/><circle id="eye1" cx="47.68" cy="12.22" r="2.5"/><path d="M23.46,26.81a60.21,60.21,0,0,0,15.29-3,43.22,43.22,0,0,1,15.86-1l-.1,1A48.65,48.65,0,0,0,39.1,25a44.63,44.63,0,0,1-7.68,2,77.77,77.77,0,0,1-7.88.86l-.08-1Z"/></g></g></svg>