<svg xmlns="http://www.w3.org/2000/svg" viewBox="0 0 79.32 137.47"><defs><style>.cls-1{fill:#fff;}.cls-2{fill:#343235;}.cls-3{fill:#efd32c;}.cls-4,.cls-6,.cls-7{fill:none;stroke:#000;stroke-miterlimit:10;}.cls-5{fill:#ff6207;}.cls-6{stroke-width:2.11px;}.cls-7{stroke-width:1.45px;}</style></defs><g id="Layer_2" data-name="Layer 2"><g id="Layer_1-2" data-name="Layer 1"><rect class="cls-1" x="17.55" y="36.47" width="19" height="55"/><rect class="cls-1" x="11.55" y="67.47" width="13" height="10"/><rect class="cls-1" x="15.55" y="77.47" width="6" height="9"/><rect class="cls-1" x="13.55" y="76.47" width="3" height="4"/><ellipse class="cls-2" cx="43.8" cy="119.72" rx="24.25" ry="9.75"/><ellipse class="cls-2" cx="19.55" cy="129.47" rx="11" ry="8"/><path class="cls-1" d="M15.21,72.94C3,59.4,15.57,46.42,15.75,32.22c6.92-.91,13.3,4.75,14.3,4.75"/><path d="M14.84,73.27c-9.13-9.4-5.38-19.95-2.11-30.88A36.33,36.33,0,0,0,14.35,31a18,18,0,0,1,5.48-.12c3.83.58,7.21,2.53,10.5,4.39.22.1-.11-.06-.28,0v3.41a5.75,5.75,0,0,1-2.56-1.16l-1.59-1c-3-1.82-6.42-3.26-10-2.93l1.2-1.35A39.69,39.69,0,0,1,15,43.06c-3.52,10.33-7.74,20.26.62,29.54l-.74.67Z"/><path class="cls-1" d="M11.05,66a20.09,20.09,0,0,0,.13,8.56,14.6,14.6,0,0,0,1.68,3.84c.56.89,1.75,1.79,2.08,2.75a2.39,2.39,0,0,1,.11.65l.28,4.2"/><path d="M11.55,66c-.43,4.19-.25,8.6,2.21,12.14.71.89,2.23,2.27,2,3.78l0,1.32c0,.89,0,1.77,0,2.66l-1,.07c-.2-1.26-.37-2.67-.5-4s-1.06-1.71-1.91-2.85a12.34,12.34,0,0,1-1.37-2.5,17.2,17.2,0,0,1-.49-10.82l1,.15Z"/><path class="cls-1" d="M24.26,64.25C27.44,53.72,9.38,40.12,14.05,44"/><path d="M23.79,64.1c1.7-7.68-6.12-15.41-11.13-19.77-.07-1-.28,2.13,1.58-1.75l-.06-.07c-.07-.08,0,0,0,0l.07.06.61.48-1.57,1.9c-.18-.17-.72-.63-.88-.81L12.32,44c1.86-3.88,1.66-.74,1.59-1.74A18.91,18.91,0,0,1,15.7,44c4.93,5.29,11.16,12.7,9,20.44l-.95-.29Z"/><path class="cls-1" d="M28.72,104.17l.83.3c28.66,5.06,51.87-18.3,44.61-43.82-2.69-13,3.37-21.18,3.65-38.47S60-4.09,47.85,5.22C31.62,14.78,30.69,41,27.55,47"/><path d="M28.79,104C47.15,107,67.69,97.7,73,78.81A32.27,32.27,0,0,0,72.85,61a35,35,0,0,1-.62-10.71c.9-8.57,3.62-16.64,3.94-25.22.38-4.84-.17-9.76-2.86-13.84-5-8.29-16.8-11-24.54-4.85C38.54,12.54,34.64,24.78,31.63,35.73c-1,3.48-2,8.26-3.63,11.5l-.89-.46c1.34-3.67,1.67-7.69,2.53-11.51A89.65,89.65,0,0,1,32.7,23.58c2.65-7.73,7.11-15.37,14.39-19.66,5.2-4.28,14.19-5.36,20.79-1.71A21.39,21.39,0,0,1,79.27,20c.29,7-.91,13.94-2.38,20.72-1.47,6.55-2.79,13.09-1.38,19.69a35.23,35.23,0,0,1-.08,19.13c-5.46,19-27.13,30.21-45.92,25.22h0l-.81-.36.13-.36Z"/><circle id="eye2" cx="58.05" cy="11.97" r="2.5"/><circle id="eye1" cx="75.05" cy="16.97" r="2.5"/><path class="cls-3" d="M69.05,22s7,9,5,10c0,0-17,4-24-12,0,0,.5-.5,13.37-.5,0,0,1.13,0,4.13-2C67.55,17.47,68.05,17,69.05,22Z"/><path class="cls-4" d="M67.55,17.47c-3,2-4.13,2-4.13,2-12.87,0-13.37.5-13.37.5,7,16,24,12,24,12,2-1-5-10-5-10C68.05,17,67.55,17.47,67.55,17.47Z"/><path d="M50.3,19.53A47.37,47.37,0,0,0,62.64,24.6a35.49,35.49,0,0,1,11.74,7l-.65.76a53.45,53.45,0,0,0-5.5-3.77c-3.93-2.6-8.27-3.07-12.41-5a60.66,60.66,0,0,1-6-3.19l.5-.87Z"/><path class="cls-5" d="M27.55,86.34A29.49,29.49,0,0,1,29.05,103l-1.5,11.38c-11.5,2.62-23.36-5-24.93-8.19S1.05,102,1.05,102c9-6,9.55-18,9.55-18C23.05,91,27.55,86.34,27.55,86.34Z"/><path class="cls-6" d="M27.55,114.35c-11.5,2.62-23.36-5-24.93-8.19S1.05,102,1.05,102c9-6,9.55-18,9.55-18,12.45,7,17,2.34,17,2.34A29.49,29.49,0,0,1,29.05,103Z"/><path d="M16.11,93.66c1.19-5.42,6.27,8.1,5.16,12.5a16.67,16.67,0,0,1-5.16-12.47Z"/><path class="cls-5" d="M67.33,116.78c-2.68,2-6.19,4.77-9.56,4.94-2.75-.6-12.2-.14-9.37-4.62,7.29-5,1.67-7,.84-13.61l6.58-2.64C57.88,109.58,56,114.91,67.33,116.78Z"/><path class="cls-7" d="M55.82,100.85c2.06,8.73.15,14.06,11.51,15.93-2.68,2-6.19,4.77-9.56,4.94-2.75-.6-12.2-.14-9.37-4.62,7.29-5,1.67-7,.84-13.61Z"/></g></g></svg>