<svg xmlns="http://www.w3.org/2000/svg" viewBox="0 0 81.75 142.55"><defs><style>.cls-1{fill:#343235;}.cls-2{fill:#fff;}.cls-3{fill:#ff600c;}.cls-4,.cls-6,.cls-8{fill:none;}.cls-4,.cls-5,.cls-6,.cls-8{stroke:#000;stroke-miterlimit:10;}.cls-4{stroke-width:2.47px;}.cls-6{stroke-width:2.28px;}.cls-7{fill:#efd32c;}</style></defs><g id="Layer_2" data-name="Layer 2"><g id="Layer_1-2" data-name="Layer 1"><ellipse class="cls-1" cx="38.77" cy="126.93" rx="24.98" ry="9.7"/><ellipse class="cls-1" cx="63.81" cy="136.46" rx="12.56" ry="6.01" transform="translate(-12.16 6.38) rotate(-5.23)"/><path class="cls-2" d="M67.84,77.12A31.77,31.77,0,0,0,68,66.29C66.4,57.5,60.21,50.23,57.5,41.71A90.34,90.34,0,0,1,55.1,29.8c-1.18-6.74-3-13.54-7-19.09S37.59,1,30.75,1.35a25.25,25.25,0,0,0-5.64,1A21.37,21.37,0,0,0,19,5c-4.1,2.77-6.42,7.6-7.53,12.29-1.26,5.27-1.27,9.88,2.05,14.33a62.46,62.46,0,0,1,5,7.34c1.86,3.42,3.08,7.33,2.57,11.19a12.12,12.12,0,0,0-8.37-10.78c-.77-.23-5.2,8.58-5.68,9.52A78.63,78.63,0,0,0,2.57,59.45c-.49,1.47-1.35,3.3-1.39,4.86-.06,2,.93,4.42,1.34,6.36L5.22,83.3a25.06,25.06,0,0,0,2,6.32c1.45,2.8,3.9,4.94,6.28,7,7.14,6.18,15,12.66,24.45,13.17a26.33,26.33,0,0,0,10-1.57,24.94,24.94,0,0,0,11.62-7.93c2.76-3.56,4.2-7.94,5.53-12.25A82.42,82.42,0,0,0,67.84,77.12Z"/><path d="M66.78,76.94c3-14.64-6.42-22.63-10.6-35.57-1.79-6.24-2.09-12.64-4-18.78C49.59,12.49,41.78,2.15,30.52,2.71,22.14,3.72,16.36,6.63,13.6,15c-1.8,5.25-2.59,11.34.94,16,4,5.44,8.25,12.08,7,19.21,0,0-.68,4.32-.7,4.36l-.3-4.37a11.51,11.51,0,0,0-7.87-10l-.14,0-.06,0s0,0,.09,0h.17l.14,0c.05,0,.06,0,0,0A89.48,89.48,0,0,0,3.07,61.44c-1.45,3-.22,5.63.6,8.76l2.08,9.5c.64,2.54,1.22,6.78,2.42,9.06,1.27,2.63,3.62,4.73,6.05,6.82C19.09,99.77,24,104,29.72,106.5c8.52,4,18.94,1.86,26.07-4,5-4,6.85-10.33,8.67-16.3a74.93,74.93,0,0,0,2.32-9.28Zm2.13.36a77.93,77.93,0,0,1-2.32,9.56c-1.84,6.26-4,13.09-9.3,17.43A29.51,29.51,0,0,1,38.6,111c-6.83-.11-13.12-3.39-18.45-7.32-2.67-1.94-5.16-4-7.62-6.18s-5.08-4.41-6.66-7.66A22.93,22.93,0,0,1,4.29,85c-.64-3-2.36-11.16-3-14.24C.88,68.9,0,66.71,0,64.58c.14-3,1.71-5.66,2.62-8.49A100,100,0,0,1,9.14,42.93a23.1,23.1,0,0,1,2.67-4,1.1,1.1,0,0,1,.9-.36,4.37,4.37,0,0,1,.7.22,12.78,12.78,0,0,1,8.1,11.27l-1,0a17.86,17.86,0,0,0-2-8.91,48.78,48.78,0,0,0-5.19-7.78,15.75,15.75,0,0,1-4-9.37c-.1-6.78,1.95-13.76,6.92-18.63C20.07,1.87,25.31.6,30.34,0a20.64,20.64,0,0,1,14.17,5c5.21,4.26,8.3,10.53,10.08,16.86,1.83,6.15,2.12,12.71,3.83,18.8C62.71,53.85,72,61.75,68.91,77.3Z"/><path class="cls-3" d="M80.33,95.09a32.47,32.47,0,0,1-12.39,18.67,7,7,0,0,1-3,1.46c-2.22.34-4.23-1.2-6-2.64l-3.68-3.1a3.46,3.46,0,0,1-1.69-3.2,89.23,89.23,0,0,1,.64-15.15c5.74-2.12,11.8-5.29,14-11,2.29,3.38,3.08,7.7,5.82,10.72A21.31,21.31,0,0,0,80.33,95.09Z"/><path class="cls-4" d="M54.25,91.13a89.23,89.23,0,0,0-.64,15.15,3.46,3.46,0,0,0,1.69,3.2l3.68,3.1c1.72,1.44,3.73,3,6,2.64a7,7,0,0,0,3-1.46A32.47,32.47,0,0,0,80.33,95.09,21.31,21.31,0,0,1,74,90.84c-2.74-3-3.53-7.34-5.82-10.72C66.05,85.84,60,89,54.25,91.13Z"/><path class="cls-5" d="M66.74,91.46A47.29,47.29,0,0,0,65,105.57c2.5-1.81,3.46-5.13,3.41-8.21A10.68,10.68,0,0,0,66.74,91.46Z"/><path class="cls-3" d="M22.19,121.92l2.82-1a1.49,1.49,0,0,0,1.24-1.76l0-10v-1.92l6.53,1.65a1,1,0,0,1,.6.3,1,1,0,0,1,.09.8q-.55,3.8-1.13,7.59a2.08,2.08,0,0,0,.17,1.56,2,2,0,0,0,.77.56,15.4,15.4,0,0,1,2.59,1.42A26,26,0,0,1,32,123.9a8,8,0,0,1-4.24,1.84,8.24,8.24,0,0,1-2.85-.51,30,30,0,0,1-3-1.16c-.38-.17-.8-.4-.89-.81C20.8,122.61,21.56,122.15,22.19,121.92Z"/><path class="cls-6" d="M26.28,109.13l0,10A1.49,1.49,0,0,1,25,120.89l-2.82,1c-.63.23-1.39.69-1.24,1.34.09.41.51.64.89.81a30,30,0,0,0,3,1.16,8.24,8.24,0,0,0,2.85.51A8,8,0,0,0,32,123.9a26,26,0,0,0,3.94-2.81,15.4,15.4,0,0,0-2.59-1.42,2,2,0,0,1-.77-.56,2.08,2.08,0,0,1-.17-1.56q.57-3.8,1.13-7.59a1,1,0,0,0-.09-.8,1,1,0,0,0-.6-.3l-6.53-1.65Z"/><path d="M14.87,74.09A17.55,17.55,0,0,0,9.29,60.9c-2.61-2.11-3.74-5.61-4.63-8.58v-.8h1v.8l-.06-.23c1.18,1.78,2,3.69,3.13,5.24s3,2.81,4.12,4.53a15.7,15.7,0,0,1,2.72,12.31l-.7-.08Z"/><path d="M21.54,48.61c.65,2.41.2,4.84.09,7.27,0,.11-.06.18.12.23l-1,0c.12,0,.13-.08.12-.12-.24-2.46-.85-4.9-.33-7.38l1,0Z"/><path d="M12.09,85.38a14.17,14.17,0,0,1-4.36-2.89A75.09,75.09,0,0,0,2.42,76l.66-.75c2.38,1.6,4.08,4,5.68,6.33a23.35,23.35,0,0,0,3.69,3.22l-.36.58Z"/><path d="M18.11,96.37a68.51,68.51,0,0,1-6.65-3.3c-1.28-.7-2.61-1.2-3.89-2l.37-.93a15.22,15.22,0,0,1,5.54,2.34c1.68,1,3.33,2.16,4.92,3.38l-.29.49Z"/><path class="cls-7" d="M38.64,18.94s12.64,1.53,11.59,3.92c0,0-12.12,16.77-29.79,9.68,0,0,.08-.79,11.44-11.08,0,0,1-.91,2.2-4.89C34.08,16.57,34.16,15.77,38.64,18.94Z"/><path class="cls-8" d="M34.08,16.57c-1.21,4-2.2,4.89-2.2,4.89C20.52,31.75,20.44,32.54,20.44,32.54c17.67,7.09,29.79-9.68,29.79-9.68,1.05-2.39-11.59-3.92-11.59-3.92C34.16,15.77,34.08,16.57,34.08,16.57Z"/><circle id="eye2" cx="21.98" cy="20.09" r="2.5"/><circle id="eye1" cx="44.25" cy="11.13" r="2.5"/><path d="M20.31,32.05a59.61,59.61,0,0,0,14.47-5.8,43.55,43.55,0,0,1,15.41-3.89l.08,1a48.68,48.68,0,0,0-14.92,4,45.11,45.11,0,0,1-7.19,3.35A75.22,75.22,0,0,1,20.57,33l-.26-1Z"/><path d="M62.66,51.86A66.91,66.91,0,0,1,69,57.93,15.58,15.58,0,0,1,71.81,67c0,3.67-1.48,7.3-2.7,10.53l-2.53-.82c.65-2.29,1.41-4.45,1.88-6.57a15.8,15.8,0,0,0-.84-9.34c-.93-2-2.59-3.51-3.84-5.36a19.31,19.31,0,0,1-1.93-3l.81-.53Z"/></g></g></svg>