<svg xmlns="http://www.w3.org/2000/svg" viewBox="0 0 76.57 129.71"><defs><style>.cls-1{fill:#343235;}.cls-2{fill:#fff;}.cls-3{fill:#fc680f;}.cls-4,.cls-6,.cls-7{stroke:#000;stroke-miterlimit:10;}.cls-5{fill:#efd32c;}.cls-6,.cls-7{fill:none;}.cls-7{stroke-width:1.5px;}</style></defs><g id="Layer_2" data-name="Layer 2"><g id="Layer_1-2" data-name="Layer 1"><ellipse class="cls-1" cx="39.5" cy="114.08" rx="24.98" ry="9.7"/><ellipse class="cls-1" cx="63.53" cy="123.62" rx="12.56" ry="6.01" transform="translate(-10.99 6.3) rotate(-5.23)"/><path class="cls-2" d="M58.21,88.57a32.16,32.16,0,0,0,3.52-9.3c1.66-7.87.64-16.09-1.41-23.86S55.2,40.17,52.67,32.54c-2-6.09-3.71-12.3-5.93-18.32A22.1,22.1,0,0,0,43,7.14,17.74,17.74,0,0,0,34.26,2.2a23,23,0,0,0-12.38-.27,18.42,18.42,0,0,0-13,17.54c.14,6.8,4.07,12.9,5.69,19.5-2.6-.45-4.28-1.6-6.88-2-.32-.06-2.73-2.17-3-2s.08,4.65,0,5C1.11,55.18-2.15,70.49,6.92,84.65A36.9,36.9,0,0,0,27,99.87c7,2.13,14.89,2,21.33-1.43A25.4,25.4,0,0,0,58.21,88.57Z"/><path d="M56.85,87.79c9.46-17.12.65-36.68-5.13-53.64C49.68,28.09,48.05,22,46,16.06c-2-6.47-4.68-10.53-11.41-12.45C28.9,1.83,22.37,1.86,17.41,5.4A17.36,17.36,0,0,0,10,20.77c.49,6,3.75,11.58,5.19,17.42.21.42-.39,1-.63,1.28a16.59,16.59,0,0,1-3.95-.91,19.07,19.07,0,0,0-3-.79,1.41,1.41,0,0,1-.32-.09c-.81-.43-2-1.53-2.76-1.93l.11,0H4.8a.85.85,0,0,0,.67-.41c.09-.21,0-.09,0-.07-.12,1.53.17,3.15.09,4.77-.23.93-.56,2.51-.78,3.45C1.71,56.82-.16,72,7.89,83.89c10.39,16.74,38.08,23.71,49,3.9Zm2.71,1.55C47.35,111,17.16,103.92,5.83,85.2,0,76.2-.93,64.91.75,54.58c.71-4.89,1.93-10,3.09-14.76.06-1.22-.21-3.17-.07-4.74a1.73,1.73,0,0,1,.15-.54,1,1,0,0,1,1-.49,3.75,3.75,0,0,1,1.32.72l1.53,1.17.25.18a.93.93,0,0,0-.14,0h.06c2.37.44,4.49,1.77,6.76,2.39l-.57.61c-.51-.19-.45-.66-.6-1.05C10.66,29.16,5,20.65,9.68,11.16A19.23,19.23,0,0,1,25.46,0C32.14-.29,39.2,1.27,44,6.31c2.33,2.68,3.43,5.89,4.52,8.85,2.16,6,3.84,12.15,5.88,18.08,6.22,17.53,15.36,38.22,5.17,56.1Z"/><path class="cls-3" d="M22.68,99.42l.05,9.75a10.65,10.65,0,0,1-1.94,1.11,10.4,10.4,0,0,0-2,1.19,21,21,0,0,0,3.78,2.67,5.92,5.92,0,0,0,1,.58,5,5,0,0,0,2.21.22,2.26,2.26,0,0,0,.89-.16,2.56,2.56,0,0,0,.6-.41l3.49-2.93a11.83,11.83,0,0,1-2-3.89,11.69,11.69,0,0,1-.24-1.44L27.72,100Z"/><path d="M23,99.79c.21,3.27.42,6.27.38,9.43,0,.41-.51.72-.75.84s-1.74.8-2.07,1a5.24,5.24,0,0,0-1.41.82l0-.7c1.09,1.15,2.94,2,4.29,2.86a4.36,4.36,0,0,0,2.85.07c1.29-1,2.66-2.19,4-3.17l-.13,1a14.84,14.84,0,0,1-1.95-4.28c-.44-2.48-1-5-1.26-7.48l.69.68a35.11,35.11,0,0,1-4.63-1Zm-.66-.74a38.17,38.17,0,0,1,6.06.23c.44,2.65.41,5.4.8,8,.3,1.66,1.58,2.85,2.51,4.22-1.06.92-2.1,1.89-3.18,2.78a7.88,7.88,0,0,1-1.61,1.21,5.43,5.43,0,0,1-4.07-.5c-.57-.38-1-.7-1.48-1a13,13,0,0,1-3.28-2.59l.36-.32c1.07-.91,2.66-1.57,3.74-2.34a.54.54,0,0,0-.14.36V109c0-3.28.12-6.83.3-10Z"/><path class="cls-3" d="M47.77,95c.48,1.2,1,2.39,1.45,3.6A9.55,9.55,0,0,0,51,101.84a23.3,23.3,0,0,0,2.08,1.76,5.67,5.67,0,0,0,1.56,1.12,4.51,4.51,0,0,0,1.55.21,29,29,0,0,0,4.84-.15,23.07,23.07,0,0,0,4.88-1.4,34.22,34.22,0,0,0,9.7-5.5c-4.59-1.95-8.3-5.47-11.9-8.92A26.29,26.29,0,0,1,56,92.54c-1.38.42-2.78.8-4.18,1.19-.68.18-1.36.37-2,.58A7.78,7.78,0,0,0,47.77,95Z"/><path d="M48.45,95.18c1,1.74,1.59,3.66,2.61,5.35a18.4,18.4,0,0,0,3.77,3.31,8.55,8.55,0,0,0,2.85.26,22.66,22.66,0,0,0,10.21-2.36,33.86,33.86,0,0,0,7.44-4.25l.13.85C70.7,96.47,66.83,93,63.09,89.65l1.22.09a25.39,25.39,0,0,1-4,2.08,61.83,61.83,0,0,1-8.29,2.6c-.83.26-3.08.78-3.74,1.06l-.09,0a.47.47,0,0,0,.22-.34Zm-1.36-.42c.42-.8,1.74-.89,2.5-1.15,1.31-.37,4.83-1.42,6.17-1.81a21.79,21.79,0,0,0,8.05-4.13c2,2,3.85,4,5.94,5.75a26.81,26.81,0,0,0,6.82,4.33l-.6.51a33.39,33.39,0,0,1-11.59,6.55,22,22,0,0,1-9,.94c-1.71-.11-2.76-1.57-4.07-2.51-2.56-2-3.19-5.55-4.23-8.48Z"/><path class="cls-4" d="M61.73,96.34a.15.15,0,0,0-.1.06,4.09,4.09,0,0,0-.62.95c-.25.49-1.73,2.56-.66,2.62a9.2,9.2,0,0,0,1,0,1.49,1.49,0,0,0,.75-.18,1.46,1.46,0,0,0,.47-.57c.16-.29.32-.59.47-.9a.53.53,0,0,0,.06-.24.48.48,0,0,0-.15-.29l-1.15-1.37A.15.15,0,0,0,61.73,96.34Z"/><path d="M19.55,51a69.61,69.61,0,0,1-2.79-6.71c-.87-2-1.43-4.65-3.41-5.79l.76-1.14A15.33,15.33,0,0,1,18,43.85c.74,2.31,1.25,4.67,1.92,7l-.35.14Z"/><path d="M14.41,70.57c-1.13-3.13-1.68-6.33-3.63-8.93-1.66-1.37-3.73-2.7-5-4.52a8.25,8.25,0,0,1-2.17-5c-.15-1.69-.28-3.38-.35-5.08l1-.14c.54,2.07.86,4.43,1.41,6.46a16,16,0,0,0,4,4.71c1.46,1.11,3.09,2,3.8,3.87A19.46,19.46,0,0,1,15,70.46l-.63.11Z"/><path d="M8.53,77.24a37.51,37.51,0,0,1-4.4-2.4c-1.24-.6-1.65-2.32-2-3.32l-1-2.66.93-.38c.79,1.5,1.32,3.74,2.22,5,1.36,1,3.29,1.93,4.63,3.08l-.39.65Z"/><path d="M12.65,88.21c-2.88-.16-5.09-2.49-7.1-4.29l.66-.75c.91.74,2.2,1.94,3.1,2.63a20.29,20.29,0,0,0,3.5,1.8l-.16.61Z"/><path class="cls-5" d="M34.11,16.32S46.77,17.61,45.77,20c0,0-11.8,17-29.6,10.25,0,0,.07-.8,11.22-11.3,0,0,1-.93,2.12-4.93C29.51,14,29.57,13.24,34.11,16.32Z"/><path class="cls-6" d="M29.51,14C28.37,18,27.39,19,27.39,19c-11.15,10.5-11.22,11.3-11.22,11.3C34,37,45.77,20,45.77,20c1-2.41-11.66-3.7-11.66-3.7C29.57,13.24,29.51,14,29.51,14Z"/><circle id="eye2" cx="17.48" cy="17.79" r="2.5"/><circle id="eye1" cx="36.79" cy="10.59" r="2.5"/><path d="M16,29.79a59.78,59.78,0,0,0,14.35-6.08,43.58,43.58,0,0,1,15.34-4.19l.1,1A48.7,48.7,0,0,0,31,24.83a44.65,44.65,0,0,1-7.12,3.48,75.24,75.24,0,0,1-7.54,2.44l-.28-1Z"/><path class="cls-7" d="M62.75,79.31A16.74,16.74,0,0,0,61.63,59"/></g></g></svg>