<svg xmlns="http://www.w3.org/2000/svg" viewBox="0 0 76.47 129.71"><defs><style>.cls-1{fill:#343235;}.cls-2{fill:#fff;}.cls-3{fill:#fc680f;}.cls-4,.cls-6,.cls-7{stroke:#000;stroke-miterlimit:10;}.cls-5{fill:#efd32c;}.cls-6,.cls-7{fill:none;}.cls-7{stroke-width:1.5px;}</style></defs><g id="Layer_2" data-name="Layer 2"><g id="Layer_1-2" data-name="Layer 1"><ellipse class="cls-1" cx="39.5" cy="114.08" rx="24.98" ry="9.7"/><ellipse class="cls-1" cx="63.53" cy="123.62" rx="12.56" ry="6.01" transform="translate(-10.99 6.3) rotate(-5.23)"/><path class="cls-2" d="M58.21,88.57a32.16,32.16,0,0,0,3.52-9.3c1.66-7.87.64-16.09-1.41-23.86S55.2,40.17,52.67,32.54c-2-6.09-3.71-12.3-5.93-18.32A22.1,22.1,0,0,0,43,7.14,17.74,17.74,0,0,0,34.26,2.2a23,23,0,0,0-12.38-.27,18.42,18.42,0,0,0-13,17.54c.14,6.8,4.07,12.9,5.69,19.5-2.6-.45-4.28-1.6-6.88-2-.32-.06-2.73-2.17-3-2s.08,4.65,0,5C1.11,55.18-2.15,70.49,6.92,84.65A36.9,36.9,0,0,0,27,99.87c7,2.13,14.89,2,21.33-1.43A25.4,25.4,0,0,0,58.21,88.57Z" transform="translate(0 0)"/><path d="M56.85,87.79c9.46-17.12.65-36.68-5.13-53.64C49.68,28.09,48.05,22,46,16.06c-2-6.47-4.68-10.53-11.41-12.45C28.9,1.83,22.37,1.86,17.41,5.4A17.36,17.36,0,0,0,10,20.77c.49,6,3.75,11.58,5.19,17.42.21.42-.39,1-.63,1.28a16.59,16.59,0,0,1-3.95-.91,19.07,19.07,0,0,0-3-.79,1.41,1.41,0,0,1-.32-.09c-.81-.43-2-1.53-2.76-1.93l.11,0H4.8a.85.85,0,0,0,.67-.41c.09-.21,0-.09,0-.07-.12,1.53.17,3.15.09,4.77-.23.93-.56,2.51-.78,3.45C1.71,56.82-.16,72,7.89,83.89c10.39,16.74,38.08,23.71,49,3.9Zm2.71,1.55C47.35,111,17.16,103.92,5.83,85.2,0,76.2-.93,64.91.75,54.58c.71-4.89,1.93-10,3.09-14.76.06-1.22-.21-3.17-.07-4.74a1.73,1.73,0,0,1,.15-.54,1,1,0,0,1,1-.49,3.75,3.75,0,0,1,1.32.72l1.53,1.17.25.18a.93.93,0,0,0-.14,0h.06c2.37.44,4.49,1.77,6.76,2.39l-.57.61c-.51-.19-.45-.66-.6-1.05C10.66,29.16,5,20.65,9.68,11.16A19.23,19.23,0,0,1,25.46,0C32.14-.29,39.2,1.27,44,6.31c2.33,2.68,3.43,5.89,4.52,8.85,2.16,6,3.84,12.15,5.88,18.08,6.22,17.53,15.36,38.22,5.17,56.1Z" transform="translate(0 0)"/><path class="cls-3" d="M22.68,99.42l.05,9.75a10.65,10.65,0,0,1-1.94,1.11,10.4,10.4,0,0,0-2,1.19,21,21,0,0,0,3.78,2.67,5.92,5.92,0,0,0,1,.58,5,5,0,0,0,2.21.22,2.26,2.26,0,0,0,.89-.16,2.56,2.56,0,0,0,.6-.41l3.49-2.93a11.83,11.83,0,0,1-2-3.89,11.69,11.69,0,0,1-.24-1.44L27.72,100Z" transform="translate(0 0)"/><path d="M23,99.79c.21,3.27.42,6.27.38,9.43,0,.41-.51.72-.75.84s-1.74.8-2.07,1a5.24,5.24,0,0,0-1.41.82l0-.7c1.09,1.15,2.94,2,4.29,2.86a4.36,4.36,0,0,0,2.85.07c1.29-1,2.66-2.19,4-3.17l-.13,1a14.84,14.84,0,0,1-1.95-4.28c-.44-2.48-1-5-1.26-7.48l.69.68a35.11,35.11,0,0,1-4.63-1Zm-.66-.74a38.17,38.17,0,0,1,6.06.23c.44,2.65.41,5.4.8,8,.3,1.66,1.58,2.85,2.51,4.22-1.06.92-2.1,1.89-3.18,2.78a7.88,7.88,0,0,1-1.61,1.21,5.43,5.43,0,0,1-4.07-.5c-.57-.38-1-.7-1.48-1a13,13,0,0,1-3.28-2.59l.36-.32c1.07-.91,2.66-1.57,3.74-2.34a.54.54,0,0,0-.14.36V109c0-3.28.12-6.83.3-10Z" transform="translate(0 0)"/><path class="cls-3" d="M47.77,93c.48,1.43,1,2.85,1.45,4.31A12.37,12.37,0,0,0,51,101.23a25.78,25.78,0,0,0,2.08,2.1,6,6,0,0,0,1.56,1.34,4.11,4.11,0,0,0,1.55.26,24.46,24.46,0,0,0,4.84-.19A19.85,19.85,0,0,0,66,103.07a33.06,33.06,0,0,0,9.7-6.6c-4.59-2.32-8.3-6.54-11.9-10.67A24.64,24.64,0,0,1,56,90.08c-1.38.51-2.78,1-4.18,1.42l-2,.7A6.76,6.76,0,0,0,47.77,93Z" transform="translate(0 0)"/><path d="M48.45,93.2c1.25,2.53,1.73,5.69,3.5,7.8a31,31,0,0,0,3.13,2.91,19.16,19.16,0,0,0,4.26.16c2.92-.09,5.72-1.4,8.45-2.77a33.07,33.07,0,0,0,7.51-5.18l.12.8c-5-2.39-8.71-6.57-12.39-10.49l1.35.09A25.73,25.73,0,0,1,60.5,89a54.4,54.4,0,0,1-8.37,3.17c-1,.37-3.06.9-3.85,1.33a.4.4,0,0,0,.17-.3Zm-1.36-.4c.47-.87,1.69-1,2.48-1.29,1.32-.45,4.87-1.71,6.23-2.19a20.63,20.63,0,0,0,8-4.94c1.91,2.32,3.79,4.7,5.87,6.81a26.26,26.26,0,0,0,6.77,5.16l-.46.48a32.6,32.6,0,0,1-11.8,7.86,18.57,18.57,0,0,1-8.37,1.08,4.2,4.2,0,0,1-1.43-.28,7.23,7.23,0,0,1-2-1.68c-3.44-2.65-4.18-7.14-5.29-11Z" transform="translate(0 0)"/><path class="cls-4" d="M61.8,93.34s-.07,0-.1.07a5.27,5.27,0,0,0-.59,1.16c-.24.6-1.65,3.13-.63,3.21a8.34,8.34,0,0,0,1,0,1.18,1.18,0,0,0,.72-.22,1.74,1.74,0,0,0,.44-.69q.24-.54.45-1.11a.73.73,0,0,0,.06-.3.64.64,0,0,0-.14-.35l-1.1-1.68A.17.17,0,0,0,61.8,93.34Z" transform="translate(0 0)"/><path d="M19.55,51a69.61,69.61,0,0,1-2.79-6.71c-.87-2-1.43-4.65-3.41-5.79l.76-1.14A15.33,15.33,0,0,1,18,43.85c.74,2.31,1.25,4.67,1.92,7l-.35.14Z" transform="translate(0 0)"/><path d="M14.41,70.57c-1.13-3.13-1.68-6.33-3.63-8.93-1.66-1.37-3.73-2.7-5-4.52a8.25,8.25,0,0,1-2.17-5c-.15-1.69-.28-3.38-.35-5.08l1-.14c.54,2.07.86,4.43,1.41,6.46a16,16,0,0,0,4,4.71c1.46,1.11,3.09,2,3.8,3.87A19.46,19.46,0,0,1,15,70.46l-.63.11Z" transform="translate(0 0)"/><path d="M8.53,77.24a37.51,37.51,0,0,1-4.4-2.4c-1.24-.6-1.65-2.32-2-3.32l-1-2.66.93-.38c.79,1.5,1.32,3.74,2.22,5,1.36,1,3.29,1.93,4.63,3.08l-.39.65Z" transform="translate(0 0)"/><path d="M12.65,88.21c-2.88-.16-5.09-2.49-7.1-4.29l.66-.75c.91.74,2.2,1.94,3.1,2.63a20.29,20.29,0,0,0,3.5,1.8l-.16.61Z" transform="translate(0 0)"/><path class="cls-5" d="M33.71,15.83S46.45,16,45.66,18.5c0,0-10.27,18-28.59,12.79,0,0,0-.8,10.18-12.23,0,0,.9-1,1.68-5.1C28.93,14,28.93,13.16,33.71,15.83Z" transform="translate(0 0)"/><path class="cls-6" d="M28.93,14c-.78,4.09-1.68,5.1-1.68,5.1C17.06,30.49,17.07,31.29,17.07,31.29,35.39,36.45,45.66,18.5,45.66,18.5c.79-2.49-11.95-2.67-11.95-2.67C28.93,13.16,28.93,14,28.93,14Z" transform="translate(0 0)"/><circle id="eye2" cx="17.27" cy="18.75" r="2.5"/><circle id="eye1" cx="35.89" cy="9.89" r="2.5"/><path d="M16.89,30.83a60.19,60.19,0,0,0,13.77-7.31A43.41,43.41,0,0,1,45.57,18l.18,1a48.8,48.8,0,0,0-14.41,5.58,45.22,45.22,0,0,1-6.79,4.1,78.92,78.92,0,0,1-7.3,3.08l-.36-.93Z" transform="translate(0 0)"/><path class="cls-7" d="M62.75,79.31A16.74,16.74,0,0,0,61.63,59" transform="translate(0 0)"/></g></g></svg>