<svg xmlns="http://www.w3.org/2000/svg" viewBox="0 0 81.39 137.68"><defs><style>.cls-1,.cls-3{fill:#fff;}.cls-1,.cls-5,.cls-7,.cls-8,.cls-9{stroke:#000;stroke-miterlimit:10;}.cls-2{fill:#343235;}.cls-4{fill:#efd32c;}.cls-5,.cls-7,.cls-8{fill:none;}.cls-6{fill:#ff6207;}.cls-7{stroke-width:2.11px;}.cls-8{stroke-width:1.45px;}</style></defs><g id="Layer_2" data-name="Layer 2"><g id="Layer_1-2" data-name="Layer 1"><rect class="cls-1" x="16.05" y="45.62" width="26" height="53"/><ellipse class="cls-2" cx="45" cy="121.93" rx="24.93" ry="9.75"/><ellipse class="cls-2" cx="21.07" cy="129.68" rx="11.31" ry="8"/><path class="cls-3" d="M15.74,88.18c-.13-1.75.16-4-.85-5.5C11.76,78,12.55,71.41,10.5,66.23,8.31,60.68,7,54,10.25,48.55a15.53,15.53,0,0,1,3.26-3.64c.69-.63,1-.55,1.31-1.54.63-2.21-.89-4.52-2-6.25-.89-1.35,7.54-3.18,8.17-3.21,5.63-.2,11.19,3.2,15,7.19"/><path d="M15.24,88.22c-.06-1.73.08-3.47-.57-4.82a17.45,17.45,0,0,1-2.33-4.62c-1.12-3.34-1.48-6.78-2.28-9.89-2.33-6.52-4.62-13.8-.87-20.33a15.9,15.9,0,0,1,4.54-4.86,1,1,0,0,0,.27-.65,11,11,0,0,0-2-5.39c-1-2,1.95-2.79,3.1-3.26a37,37,0,0,1,5.79-1.58c6.15-.5,11.83,3.32,15.42,7.94l-.73.69a27.43,27.43,0,0,0-12.86-6.33A16.56,16.56,0,0,0,21,35c-2.36.4-5.25.91-7.31,2.09-.12.06-.12.2,0-.08a.57.57,0,0,0-.06-.41,14.22,14.22,0,0,1,2.19,3.83,4.58,4.58,0,0,1-1,4.55c-4.46,3.12-6,8.49-5.09,13.72.41,3.31,1.91,6.4,2.77,9.6C13.56,73,12.9,77.58,15,81.78c1.36,2,1,4.37,1.2,6.36l-1,.08Z"/><path class="cls-3" d="M29.5,106.38l.85.3c29.47,5.06,53.33-18.3,45.87-43.82-2.77-13,3.92-21.18,3.75-38.47C79.8,6.55,58.36-5.65,47.66,6.12c-15,16.54-10.57,25.3-10.28,30,0,.15-.44,1.7-1,3.69-1.1,3.61-2.71,8.64-3.07,9.31"/><path d="M29.56,106.2c12.33,1.91,26.15-1.23,35.64-9.71C74.54,88.41,78.7,75.07,75,63.23c-1.31-5.6-.7-11.55.55-17.06a112.46,112.46,0,0,0,2.86-16.1c.46-5.23.33-10.66-2.3-15.34-4.94-10-20.15-17.08-28.19-6.62-4.29,5-8.3,10.67-9.48,17.18-.74,3.5.07,7.09.53,10.66a2.1,2.1,0,0,1-.07.71,40.64,40.64,0,0,1-5.43,12.56L33.09,49c.56-2.66.77-5.52,1.31-8.21l1.18-3.93c.08-.33.2-.73.25-1,0-.06,0,.15,0,.27v-.05c-.53-3.73-1.28-7.56-.48-11.42C36.4,19,39.45,13.92,43,9.4a37.47,37.47,0,0,1,5.88-6.34c10.3-7.59,24.66.1,29.77,10.35,2.85,5.14,3.1,11.18,2.55,16.89-.51,8.39-3.57,16.19-4.21,24.41a30.91,30.91,0,0,0,.54,7.78A33.66,33.66,0,0,1,77.4,82c-5.84,19.18-28.18,29.9-47.09,25h0l-.83-.36.12-.36Z"/><path class="cls-4" d="M71.21,24.17s7,9,5,10c0,0-17,4-24-12,0,0,.5-.5,13.37-.5,0,0,1.13,0,4.13-2C69.71,19.67,70.21,19.17,71.21,24.17Z"/><path class="cls-5" d="M69.71,19.67c-3,2-4.13,2-4.13,2-12.87,0-13.37.5-13.37.5,7,16,24,12,24,12,2-1-5-10-5-10C70.21,19.17,69.71,19.67,69.71,19.67Z"/><path d="M52.46,21.74A47.37,47.37,0,0,0,64.8,26.81a35.39,35.39,0,0,1,11.74,7l-.65.76a54.42,54.42,0,0,0-5.49-3.77c-3.94-2.6-8.28-3.07-12.42-5a59.34,59.34,0,0,1-6-3.18l.49-.87Z"/><path class="cls-6" d="M28.3,88.55a28.67,28.67,0,0,1,1.54,16.62L28.3,116.55c-11.82,2.62-24-5-25.63-8.18s-1.62-4.2-1.62-4.2c9.26-6,9.81-18,9.81-18C23.67,93.17,28.3,88.55,28.3,88.55Z"/><path class="cls-7" d="M28.3,116.55c-11.82,2.62-24-5-25.63-8.18s-1.62-4.2-1.62-4.2c9.26-6,9.81-18,9.81-18,12.81,7,17.44,2.35,17.44,2.35a28.67,28.67,0,0,1,1.54,16.62Z"/><path d="M18.27,95.87c1.2-5.45,6.27,8.1,5.16,12.5a16.7,16.7,0,0,1-5.16-12.48Z"/><path class="cls-5" d="M18.27,95.89l-.06.28"/><path class="cls-5" d="M18.27,95.87v0a16.7,16.7,0,0,0,5.16,12.48c1.11-4.4-4-18-5.16-12.5"/><path class="cls-6" d="M69.5,119c-2.69,2-6.2,4.76-9.56,4.93-2.76-.6-12.2-.13-9.38-4.62,7.3-5,1.67-7,.85-13.61L58,103.06C60,111.79,58.13,117.11,69.5,119Z"/><path class="cls-8" d="M58,103.06c2.06,8.73.15,14,11.52,15.93-2.69,2-6.2,4.76-9.56,4.93-2.76-.6-12.2-.13-9.38-4.62,7.3-5,1.67-7,.85-13.61Z"/><path class="cls-3" d="M24.94,69.15c4.67-9.25-9-19.07-12.89-22.53"/><path d="M24.49,68.93c3-6.7-3.21-12.84-7.85-17-1.73-1.52-3.54-2.88-5.4-4.4l1.62-1.85c6.2,5.68,17.06,14.14,12.53,23.68l-.9-.45Z"/><path class="cls-5" d="M12.55,69.12c-.42-.34.72,1.72,6,5,3.8,2.37,5,1.28,5,1.28"/><circle id="eye2" class="cls-9" cx="60.21" cy="14.18" r="2.5"/><circle id="eye1" class="cls-9" cx="77.21" cy="19.18" r="2.5"/></g></g></svg>