<svg xmlns="http://www.w3.org/2000/svg" viewBox="0 0 70.22 137.88"><defs><style>.cls-1{fill:#fff;}.cls-2{fill:#343235;}.cls-3{fill:#ff6207;}.cls-4,.cls-5,.cls-7{fill:none;stroke:#000;stroke-miterlimit:10;}.cls-4{stroke-width:2.11px;}.cls-5{stroke-width:1.45px;}.cls-6{fill:#efd32c;}</style></defs><g id="Layer_2" data-name="Layer 2"><g id="Layer_1-2" data-name="Layer 1"><rect class="cls-1" x="5.81" y="41.44" width="22.32" height="56.44" rx="1.99" transform="translate(-6.49 1.91) rotate(-5.41)"/><rect class="cls-1" x="3.99" y="65.77" width="11.45" height="20.85" rx="3.7" transform="matrix(0.97, -0.24, 0.24, 0.97, -17.76, 4.47)"/><path class="cls-1" d="M19.61,104.17l.83.3c28.65,5.06,47.44-19,40.19-44.53-2.7-13,7.78-20.47,8.06-37.76S50.83-4.09,38.74,5.22C22.5,14.78,21.57,41,18.44,47"/><path d="M19.67,104c26.89,4.19,47.11-16.93,39.64-43.68a22.87,22.87,0,0,1,.31-10.91,82.46,82.46,0,0,1,3.57-9.82c2.54-6.14,4.29-12.65,3.91-19.29C66.48,6.67,51-2.21,39.66,6.41,29.43,12.54,25.52,24.78,22.51,35.73c-1,3.48-2,8.26-3.63,11.5L18,46.77c1.35-3.67,1.67-7.69,2.53-11.51a89.65,89.65,0,0,1,3.06-11.68C26.24,15.85,30.69,8.21,38,3.92c5.22-4.3,14.24-5.36,20.85-1.69A21.47,21.47,0,0,1,70.17,20.08c.39,7.15-1.5,14.15-4.21,20.62a86.16,86.16,0,0,0-3.56,9.44,20.83,20.83,0,0,0-.46,9.42,40.43,40.43,0,0,1,.8,18.62,34,34,0,0,1-42.35,26.54h0l-.81-.36.13-.36Z"/><ellipse class="cls-2" cx="34.69" cy="119.72" rx="24.25" ry="9.75"/><ellipse class="cls-2" cx="13.81" cy="129.88" rx="11" ry="8"/><path class="cls-1" d="M6.1,72.94c-12.26-13.54.35-26.52.53-40.72C13.55,31.31,19.94,37,20.94,37"/><path d="M5.73,73.27C-3.41,63.87.35,53.32,3.62,42.4A36.71,36.71,0,0,0,5.23,31a18,18,0,0,1,5.48-.12c3.84.58,7.21,2.53,10.5,4.39.22.1-.1-.06-.27,0v3.41a5.74,5.74,0,0,1-2.57-1.16l-1.59-1c-3-1.82-6.42-3.26-10-2.93L8,32.24A40.45,40.45,0,0,1,5.85,43.06C2.32,53.39-1.9,63.32,6.47,72.6l-.74.67Z"/><path class="cls-1" d="M1.94,66a19.93,19.93,0,0,0,.12,8.56,14.63,14.63,0,0,0,1.69,3.84c.55.89,1.75,1.79,2.08,2.75a2.38,2.38,0,0,1,.1.65L6.22,86l1.09,4.41,1,5v1"/><path d="M2.43,66c-.52,4.18-.3,8.64,2.19,12.15.74.88,2.3,2.24,2.17,3.76.06.84.19,3.1.24,4a83.38,83.38,0,0,1,1.83,9.35v.11l-.06,1h-1l-.06-1c-.64-2.49-1.53-6.33-2.33-9.21a.68.68,0,0,1,0-.14l-.2-2.64c0-.37-.11-1.57-.14-1.89-.27-.85-1-1.37-1.74-2.31A12.61,12.61,0,0,1,2,76.69C.51,73.28.69,69.41,1.44,65.89l1,.15Z"/><path class="cls-1" d="M15.15,64.25C18.32,53.72.27,40.12,4.94,44"/><path d="M14.67,64.1c1.71-7.68-6.12-15.41-11.13-19.77-.07-1-.28,2.13,1.58-1.75l0-.07c-.08-.08-.05,0,0,0l.06.06.61.48-1.57,1.9c-.17-.17-.72-.63-.88-.81L3.2,44c1.86-3.88,1.66-.74,1.59-1.74A19,19,0,0,1,6.59,44c4.92,5.29,11.15,12.7,9,20.44l-1-.29Z"/><path class="cls-3" d="M19.66,95.34a19.22,19.22,0,0,1-.39,10.51l-1.8,7c-7.16.77-13.74-4.89-14.44-7a8.33,8.33,0,0,1-.63-2.74C8.32,100,9.59,92.6,9.59,92.6,16.58,97.9,19.66,95.34,19.66,95.34Z"/><path class="cls-4" d="M17.47,112.85c-7.16.77-13.74-4.89-14.44-7a8.33,8.33,0,0,1-.63-2.74C8.32,100,9.59,92.6,9.59,92.6c7,5.3,10.07,2.74,10.07,2.74a19.22,19.22,0,0,1-.39,10.51Z"/><path d="M11.34,101.45c.66-2.47,3.51,3.7,2.89,5.71a7,7,0,0,1-2.89-5.69Z"/><path class="cls-3" d="M58.23,116.78c-2.69,2-6.2,4.77-9.57,4.94-2.75-.6-12.19-.14-9.37-4.62,7.3-5,1.67-7,.85-13.61l6.57-2.64C48.77,109.59,46.86,114.91,58.23,116.78Z"/><path class="cls-5" d="M46.71,100.85c2.06,8.74.15,14.06,11.52,15.93-2.69,2-6.2,4.77-9.57,4.94-2.75-.6-12.19-.14-9.37-4.62,7.3-5,1.67-7,.85-13.61Z"/><path class="cls-6" d="M59.94,22s7,9,5,10c0,0-17,4-24-12,0,0,.5-.5,13.37-.5,0,0,1.13,0,4.13-2C58.44,17.47,58.94,17,59.94,22Z"/><path class="cls-7" d="M58.44,17.47c-3,2-4.13,2-4.13,2-12.87,0-13.37.5-13.37.5,7,16,24,12,24,12,2-1-5-10-5-10C58.94,17,58.44,17.47,58.44,17.47Z"/><path d="M41.18,19.53A47.37,47.37,0,0,0,53.52,24.6a35.29,35.29,0,0,1,11.74,7l-.65.76a54.42,54.42,0,0,0-5.49-3.77c-3.93-2.6-8.28-3.07-12.42-5a60.5,60.5,0,0,1-6-3.19l.49-.87Z"/><circle id="eye2" cx="48.94" cy="11.97" r="2.5"/><circle id="eye1" cx="67.13" cy="20.44" r="2"/></g></g></svg>