<svg xmlns="http://www.w3.org/2000/svg" viewBox="0 0 79.5 140.02"><defs><style>.cls-1{fill:#fff;}.cls-2{fill:#343235;}.cls-3,.cls-5,.cls-6{fill:none;stroke:#000;stroke-miterlimit:10;}.cls-4{fill:#f46a16;}.cls-5{stroke-width:2.81px;}.cls-6{stroke-width:1.89px;}.cls-7{fill:#efd32c;}</style></defs><g id="Layer_2" data-name="Layer 2"><g id="Layer_1-2" data-name="Layer 1"><path class="cls-1" d="M65.79,77a9,9,0,0,1,.72,2.74,9.62,9.62,0,0,1,.29,1.57c0,.42-.14.84-.13,1.27a7.15,7.15,0,0,0,.22,1.52,4,4,0,0,1,.17.56c0-.25,0-.08-.14.12a3.94,3.94,0,0,0-.6,3.21,1.44,1.44,0,0,0,1,1A1.68,1.68,0,0,0,69,88.59a1.65,1.65,0,0,0,.43-.69c0-.14.11-.74.05-.43a1.5,1.5,0,0,0-2.89-.8,5.57,5.57,0,0,0-.13,3.47L66.56,89c.13-.26,0,0-.13.1a2.92,2.92,0,0,0-.31.61,1.52,1.52,0,0,0,1,1.85,1.54,1.54,0,0,0,1.85-1l0-.1-.39.66a1.71,1.71,0,0,0,.56-1.94,2.78,2.78,0,0,1,.2-1.65l-2.89-.8c0,.08-.16.76-.06.43l.39-.66-.08.07,1.46-.39h-.09l1,1c-.09-.39.1-.58.3-.9a2.91,2.91,0,0,0,.56-1.62c0-.88-.52-1.65-.34-2.53a9.27,9.27,0,0,0-.38-3.46,9.9,9.9,0,0,0-1-3.2A1.5,1.5,0,0,0,65.79,77Z"/><path class="cls-1" d="M65.93,90.69l-1.65,2.88c-.23.4-.47.8-.74,1.18l-.1.14c-.12.17.05,0,.08-.09a3.47,3.47,0,0,1-.25.29,4.23,4.23,0,0,1-.53.51,1.52,1.52,0,0,0-.44,1.06,1.5,1.5,0,0,0,.44,1.06,1.53,1.53,0,0,0,2.12,0,9.32,9.32,0,0,0,2-2.56l1.69-3A1.52,1.52,0,0,0,68,90.15a1.55,1.55,0,0,0-2.06.54Z"/><ellipse class="cls-2" cx="40.46" cy="127.5" rx="24.25" ry="9.75"/><ellipse class="cls-2" cx="63.78" cy="130.54" rx="7.5" ry="5" transform="translate(-17.93 10.4) rotate(-8.18)"/><path class="cls-1" d="M25.78,62c.94-8.1,1.65-16,.64-24.19C25.88,33.46,25,29,25.65,24.66c1.44-9.11,6.9-17.32,15.56-20.76a37.14,37.14,0,0,1,5.65-1.71C57.17-.07,64.83,7,67.22,16.66c1.33,5.36.56,11.39.56,16.88,0,6.64-1.49,13.3-1.82,19.94a177.19,177.19,0,0,0,.19,20.74c.39,5.89,1.79,12.3-.71,17.92-1.71,3.87-4.78,7.22-7,10.8-3.11,4.93-4.78,8.46-10.12,11.43a40.78,40.78,0,0,1-12.36,4.78C25.65,121,14.65,116.23,8.53,107.87c-4-5.48-6.18-15.47-6.73-22.12C.94,75.28-.41,61.33,9.19,54.32,15.3,49.86,21,44.87,26.78,40"/><path d="M25.28,62c.26-6.82.6-13.6,0-20.23-.29-3.31-1-6.56-1.41-10.07A29,29,0,0,1,32.82,7,28.59,28.59,0,0,1,47.52.27c9.82-1.78,18.26,5.46,20.72,14.65,1.55,5.06,1.06,10.59.82,15.68C69,34,68.85,37.48,68.4,40.88a152.75,152.75,0,0,0-.75,40.58c.8,8.31-1.76,12.94-6.62,19.32-2,2.7-3.47,5.72-5.55,8.6a21.53,21.53,0,0,1-8.15,6.76A41.42,41.42,0,0,1,37.58,120c-12.15,2.93-25.86-3.29-31.79-14.27C1.82,97.89.63,89.11.17,80.46-.2,73.54-.24,66.22,3,59.83a18.56,18.56,0,0,1,5.21-6.2c6.2-4.5,11.79-9.66,18.22-14l.64.77A138.67,138.67,0,0,1,11.66,53.9a25.63,25.63,0,0,0-4.61,4C1,65.6,2.33,76.19,3,85.37c.88,8,2.42,16.81,7.63,23.22C17,116,27.45,120,37.06,117.74a39.43,39.43,0,0,0,13.41-6.12c4-3.13,5.88-7.89,9-12,2-2.77,4.13-5.42,5.36-8.41,1.88-4.57,1.09-9.87.64-14.75-.45-5.13-.61-10.25-.65-15.4-.36-10.26,2-20.34,1.77-30.59.07-5.06.43-10-1.15-14.75C63.28,8.3,56.22,2,48.1,3.79,36.37,5.6,28.44,14.93,27.28,26.53c-.34,5,.93,9.85,1,15a90.79,90.79,0,0,1-2,20.54l-1-.12Z"/><path d="M15.21,78.08A31.64,31.64,0,0,0,13.6,71c-.29-.86-1.4-3.15-1.82-4C10,63.42,8,59.94,6.33,56.27l.89-.47c4.16,7.19,9.45,13.67,9,22.2l-1,.08Z"/><path d="M9.72,88.1c-4.18-2.16-6.56-6.59-8.37-10.74l.85-.52a26.88,26.88,0,0,1,2.05,2.75C6,82.35,7.94,85.32,9.72,88.1Z"/><path class="cls-3" d="M10.25,100.15a4.19,4.19,0,0,1-2.89-.25,4.06,4.06,0,0,1-.76-.67L3.56,96"/><path d="M55.75,116.54c-.62-.07-.58-.75-.44-1.17.75-2.32,1.87-4.77,4.18-5.91a1.61,1.61,0,0,1,1.56.16l-.55.84c-1,.19-1.64,1.51-2.26,2.29a18.86,18.86,0,0,0-2,3.19.53.53,0,0,0-.12-.26.43.43,0,0,0-.32-.14l0,1Z"/><path d="M66.91,70.6c.83,2.67,2.06,5.16,3,7.94,2.61,9.51-.92,17.55-9.53,22.23l-.29-.46C67.81,94.86,70.61,88.19,68.48,79c-.82-2.59-2-5.24-2.8-8l1.23-.37Z"/><path class="cls-4" d="M77.87,102.07l.07.09-3.15,8.94a7.42,7.42,0,0,1-1.1,2.26,7.12,7.12,0,0,1-1.86,1.45,64,64,0,0,1-9.62,4.72,10.42,10.42,0,0,1-2.89.79c-1.53.12-3.61-.57-3.58-2.35a10.75,10.75,0,0,0,0-1.7c-.21-1.24-1.38-2.12-1.73-3.33a3,3,0,0,1-.12-.89,6.76,6.76,0,0,1,1.31-3.28,1.27,1.27,0,0,1,.55-.55,1.25,1.25,0,0,1,.92.14l3.57,1.5a.83.83,0,0,0,.53.1.87.87,0,0,0,.39-.32l4.68-5.75a2.09,2.09,0,0,1,2-1l6.33-.11A7.31,7.31,0,0,0,77.87,102.07Z"/><path class="cls-5" d="M77.87,102.07a7.31,7.31,0,0,1-3.63.7l-6.33.11a2.09,2.09,0,0,0-2,1l-4.68,5.75a.87.87,0,0,1-.39.32.83.83,0,0,1-.53-.1l-3.57-1.5a1.25,1.25,0,0,0-.92-.14,1.27,1.27,0,0,0-.55.55,6.76,6.76,0,0,0-1.31,3.28,3,3,0,0,0,.12.89c.35,1.21,1.52,2.09,1.73,3.33a10.75,10.75,0,0,1,0,1.7c0,1.78,2,2.47,3.58,2.35a10.42,10.42,0,0,0,2.89-.79,64,64,0,0,0,9.62-4.72,7.12,7.12,0,0,0,1.86-1.45,7.42,7.42,0,0,0,1.1-2.26l3.15-8.94Z"/><path d="M69.78,109v3a2.8,2.8,0,0,1-2,1c-.82,0-1.89-.37-2-1s1-1.43,1.88-2A8.91,8.91,0,0,1,69.78,109Z"/><path class="cls-3" d="M67.78,113a2.8,2.8,0,0,0,2-1v-3a8.91,8.91,0,0,0-2.12,1c-.88.57-2,1.3-1.88,2S67,113.06,67.78,113Z"/><path class="cls-4" d="M29.34,128c1.59,1.88,3.62,5.8,6.49,5.6-.82,1.08-3,1.87-4.26,2.53-1.91,1-3.85,2-5.79,2.95,0,0-15-2.56-13.5-3.28a26.5,26.5,0,0,0,8.44-7.4c2-2.65,3.26-6.05,2.61-9.31a42.28,42.28,0,0,1,5.4,0,49,49,0,0,1,0,7.37,2.31,2.31,0,0,0,.08.74A2.36,2.36,0,0,0,29.34,128Z"/><path class="cls-6" d="M25.78,139s-15-2.56-13.5-3.28a26.5,26.5,0,0,0,8.44-7.4c2-2.65,3.26-6.05,2.61-9.31a42.28,42.28,0,0,1,5.4,0,49,49,0,0,1,0,7.37,2.31,2.31,0,0,0,.08.74,2.36,2.36,0,0,0,.49.76c1.59,1.88,3.62,5.8,6.49,5.6-.82,1.08-3,1.87-4.26,2.53C29.66,137.12,27.72,138.07,25.78,139Z"/><path d="M24.78,133a3.49,3.49,0,0,1,1-2,4.27,4.27,0,0,1,1.09,1.72c.1.72-1.09,1.72-1.09,1.72A1.71,1.71,0,0,1,24.78,133Z"/><path class="cls-7" d="M56.43,19.87s11.91,4.5,10.33,6.57c0,0-15.76,13.4-31.24,2.32,0,0,.27-.75,13.74-8,0,0,1.19-.64,3.31-4.22C52.57,16.49,52.84,15.74,56.43,19.87Z"/><path class="cls-3" d="M52.57,16.49c-2.12,3.58-3.31,4.22-3.31,4.22C35.79,28,35.52,28.76,35.52,28.76,51,39.84,66.76,26.44,66.76,26.44c1.58-2.07-10.33-6.57-10.33-6.57C52.84,15.74,52.57,16.49,52.57,16.49Z"/><circle id="eye2" cx="39.98" cy="17.04" r="2.5"/><circle id="eye1" cx="60.49" cy="15.03" r="2.5"/><path d="M35.51,28.26A60,60,0,0,0,51,26.07,43.53,43.53,0,0,1,66.84,26l-.16,1a48.59,48.59,0,0,0-15.46.36,44,44,0,0,1-7.77,1.54,75,75,0,0,1-7.92.42l0-1Z"/></g></g></svg>