<svg xmlns="http://www.w3.org/2000/svg" viewBox="0 0 76.59 139.98"><defs><style>.cls-1{fill:#343235;}.cls-2{fill:#fff;}.cls-3{fill:#efd32c;}.cls-4,.cls-6{fill:none;stroke:#000;stroke-miterlimit:10;}.cls-5{fill:#fd680e;}.cls-6{stroke-width:2.25px;}</style></defs><g id="Layer_2" data-name="Layer 2"><g id="Layer_1-2" data-name="Layer 1"><ellipse class="cls-1" cx="19.22" cy="131.98" rx="11" ry="8"/><rect class="cls-2" x="17.4" y="49.14" width="25.96" height="57.47" rx="8" transform="translate(38.09 -5.36) rotate(26.6)"/><rect class="cls-2" x="12.12" y="50.39" width="14" height="40" transform="translate(40.19 0.56) rotate(31.99)"/><ellipse class="cls-1" cx="39.82" cy="125.27" rx="24.25" ry="9.75"/><path class="cls-2" d="M22.12,54.39A80.31,80.31,0,0,0,28.77,40.1c1.63-5,2-10.1,3.24-15.15,1.63-6.72,4.11-14.81,9.68-19.36C46.8,1.41,54.08.42,60.3,2.35c8.34,2.6,13,10.54,14,18.88.7,5.75,1,12.76-2,17.93-3.49,6.13-6.34,11.82-7,19-.8,8.84,1.4,17.62.86,26.46-.5,8.1-3.6,15.7-10,21a27.58,27.58,0,0,1-12.55,5.81,37.39,37.39,0,0,1-6.93.39c-2,0-4.53.35-6.26-1-1-.8-1.58-2.15-2.4-3.15" transform="translate(0 0)"/><path d="M21.68,54.14C23.59,50,25.73,46,27.23,41.81s2.2-8.61,3-13.13C31.47,21.84,33.14,14.92,37,9,43.64-1.67,60.26-3,69,5.86c7,7,8.28,17.52,7.38,26.93C76,37.49,73,41.73,71,45.88a35.63,35.63,0,0,0-3.52,12.36c-.75,8.61,1.68,17.58,1.06,27.23s-5.5,19.81-14.16,24.9c-5.32,3.28-11.78,3.71-17.8,2.77-4.85-.2-6.68-.46-8.85-5.17l.78-.63c1.49,1.73,2.32,3.43,4.77,3.33a34.59,34.59,0,0,0,18.2-5.17A24.75,24.75,0,0,0,60.19,97c7.09-12.13,1.77-25.33,3.1-39.2a39.59,39.59,0,0,1,4.17-13.68c1-2.1,2.2-4.14,3.32-6.09,2-3.62,2.34-8.08,2.19-12.26-.17-6.39-1.69-13.11-6.25-17.73C61,2,50.45,1.14,43.46,5.88c-5.44,3.8-7.91,10.43-9.7,16.61-1.31,4.38-1.91,8.8-2.87,13.28a57,57,0,0,1-8.34,18.87l-.87-.5Z" transform="translate(0 0)"/><path class="cls-2" d="M22.13,105.08c-1.55.8-3.9,2.49-5.53,1-3.9-3.53-8-7.49-10.49-12.18-3.59-6.82-7.53-16.55-3.36-24" transform="translate(0 0)"/><path d="M22.36,105.53c-1.69,1-4.18,2.69-6.1,1.11-1.55-1.32-3-2.61-4.44-4A35.46,35.46,0,0,1,4.58,93C1.93,87.6-.48,81.59.08,75.43a11.65,11.65,0,0,1,2.23-5.79l.88.49a21.13,21.13,0,0,0-.85,11.12,41,41,0,0,0,10.57,20.29c1.35,1.39,2.77,2.8,4.18,4.11a2.11,2.11,0,0,0,2.19.21,21.62,21.62,0,0,0,2.62-1.22l.46.89Z" transform="translate(0 0)"/><path d="M10.23,90.18a12.86,12.86,0,0,1-7.54-2.85l.6-.8c1,.5,2.44,1.2,3.45,1.66s2.54,1.07,3.59,1.55l-.1.44Z" transform="translate(0 0)"/><path class="cls-2" d="M27.75,43.41a19.87,19.87,0,0,1-8.65-4,1.4,1.4,0,0,1-.37-.4A1.32,1.32,0,0,1,19,37.82c.47-.76,1-1.49,1.53-2.21s1.41-1.45,1.56-2.12c-2,.44-3.53,1.75-5.1,2.92a23.64,23.64,0,0,0-4.5,4A52.29,52.29,0,0,0,3.41,55.8C.94,62.94,1.34,72.65,7.62,77.89" transform="translate(0 0)"/><path d="M27.65,43.9a14.17,14.17,0,0,1-9-3.56,2,2,0,0,1-.36-3.1c.47-.61,1.18-1.52,1.67-2.12a14.93,14.93,0,0,0,1.69-1.73s.59.6.59.59c-1.94.74-3.43,2.32-5.23,3.72a20.7,20.7,0,0,0-4.49,4.57c-3.94,5.21-7.6,10.85-8.89,17.29a22.41,22.41,0,0,0,.93,12.59,32.4,32.4,0,0,0,2.73,4.92c.18.2.31.47.7.43l-.64.77c0-.42-.31-.53-.53-.71C2.88,75.23,1.44,70.39,1,66.12.15,56.72,5.07,48,10.66,40.86a20.29,20.29,0,0,1,5.08-4.79c2.08-1.45,4.34-3.12,7-3.14l-.2.67a5.3,5.3,0,0,1-1.16,2.08c-.49.73-1.06,1.79-1.57,2.58-.18.26-.22.51-.19.45s0-.17-.05-.18l1.07.77a43.69,43.69,0,0,0,7.16,3.62l-.19,1Z" transform="translate(0 0)"/><circle id="eye2" cx="51.62" cy="13.89" r="2.5"/><circle id="eye1" cx="70.62" cy="21.89" r="2.5"/><path class="cls-3" d="M64.73,24.22s8.34,9.63,6,10.7c0,0-20.24,4.27-28.58-12.84,0,0,.6-.53,15.92-.53,0,0,1.35,0,4.92-2.14C63,19.41,63.54,18.87,64.73,24.22Z" transform="translate(0 0)"/><path class="cls-4" d="M63,19.41C59.38,21.55,58,21.55,58,21.55c-15.32,0-15.92.53-15.92.53,8.34,17.11,28.58,12.84,28.58,12.84,2.38-1.07-6-10.7-6-10.7C63.54,18.87,63,19.41,63,19.41Z" transform="translate(0 0)"/><path d="M42.34,21.63A59.89,59.89,0,0,0,57,27.05a43.16,43.16,0,0,1,14,7.47l-.61.79a48.86,48.86,0,0,0-13.76-7,44.22,44.22,0,0,1-7.57-2.34,74.42,74.42,0,0,1-7.16-3.4l.45-.89Z" transform="translate(0 0)"/><g id="feet"><path class="cls-5" d="M63.12,116.93l-1.5.95s-6,3-10.19,3.09-2.81-1.09-1.81-2.87,1-4.22,0-5.22l7-5v4c0,2,2,2,4,3A5.39,5.39,0,0,1,63.12,116.93Z" transform="translate(0 0)"/><path d="M22.91,127.09a5.37,5.37,0,0,1-.79-5.71l.78-.92a21.59,21.59,0,0,1,1,3.14,5.45,5.45,0,0,1-.66,3.57H23A.41.41,0,0,0,22.91,127.09Z" transform="translate(0 0)"/><path class="cls-5" d="M23,127.18h.27a5.45,5.45,0,0,0,.66-3.57,21.59,21.59,0,0,0-1-3.14l-.78.92a5.37,5.37,0,0,0,.79,5.71A.41.41,0,0,1,23,127.18Zm-.74-17.76a4.18,4.18,0,0,0,.07-3.83c-.11-.19-.19-.48.07-.55a.58.58,0,0,1,.32,0c.51.12,6,1.73,5.94,2.07,0,0-1.74,9.86-.87,10.83s8.87,6.4,10.87,7c1.64.49.27,1.58-.7,2a37.48,37.48,0,0,1-7.65,2A36.15,36.15,0,0,1,23.62,130a67.91,67.91,0,0,1-8.89-1c-3.24-.44-6.47-.94-9.68-1.52-4.36-.78,1.14-4,2.78-4.88,2.46-1.29,5.37-1.82,7.68-3.28,1.55-1,3.08-1.84,3.79-3.31.45-1,.64-2,1-2.92C20.85,111.83,21.68,110.66,22.22,109.42Z" transform="translate(0 0)"/><path class="cls-4" d="M56.62,107.88v4c0,2,2,2,4,3a5.39,5.39,0,0,1,2.5,2.05l-1.5.95s-6,3-10.19,3.09-2.81-1.09-1.81-2.87,1-4.22,0-5.22Z" transform="translate(0 0)"/><path class="cls-6" d="M28.62,107.13S26.88,117,27.75,118s8.87,6.4,10.87,7c1.64.49.27,1.58-.7,2a37.48,37.48,0,0,1-7.65,2A36.15,36.15,0,0,1,23.62,130a67.91,67.91,0,0,1-8.89-1c-3.24-.44-6.47-.94-9.68-1.52-4.36-.78,1.14-4,2.78-4.88,2.46-1.29,5.37-1.82,7.68-3.28,1.55-1,3.08-1.84,3.79-3.31.45-1,.64-2,1-2.92.51-1.25,1.34-2.42,1.88-3.66a4.18,4.18,0,0,0,.07-3.83c-.11-.19-.19-.48.07-.55a.58.58,0,0,1,.32,0C23.19,105.18,28.67,106.79,28.62,107.13Z" transform="translate(0 0)"/></g></g></g></svg>