<svg xmlns="http://www.w3.org/2000/svg" viewBox="0 0 79.17 129"><defs><style>.cls-1{fill:#343235;}.cls-2{fill:#fff;}.cls-3{fill:#ff6506;}.cls-4,.cls-6{stroke:#000;stroke-miterlimit:10;}.cls-5{fill:#efd32c;}.cls-6{fill:none;}</style></defs><g id="Layer_2" data-name="Layer 2"><g id="Layer_1-2" data-name="Layer 1"><ellipse class="cls-1" cx="40.12" cy="117.01" rx="26.7" ry="9.7"/><ellipse class="cls-1" cx="66.58" cy="122.91" rx="12.56" ry="6.01" transform="translate(-10.92 6.57) rotate(-5.23)"/><path class="cls-2" d="M59.19,91.77,62.53,86a38.8,38.8,0,0,0,3.55-11.42c.46-3.21-.58-7.18-1.1-10.4-1.2-7.4-3.9-14-6.78-20.84a187.12,187.12,0,0,1-7.38-21.07c-1.53-5.37-2.94-11-6.68-15.18C39.24,1.61,30.75,0,24,2.82A21.2,21.2,0,0,0,11.59,19.66a22.75,22.75,0,0,0,1.2,10.54c1.07,2.93,2.78,5.86,2.26,8.93a36.39,36.39,0,0,0-9.61-2.6,1.76,1.76,0,0,0-.94.06c-1,.45-.44,1.95.07,2.94,1.54,3,.74,6.73-.49,9.91s-2.87,6.32-3,9.73C1,63.14,3,66.85,3.7,70.76c.52,2.83.36,5.77,1.13,8.55a21.8,21.8,0,0,0,4.5,7.77c5.24,6.34,12,11.65,19.88,14,9.56,2.88,17.47.27,25.71-4.58l4.27-4.76"/><path d="M58.76,91.52c1.24-2.92,2.9-5.64,3.91-8.64a46,46,0,0,0,2-9C64.76,71,64,68,63.39,64.74a60.42,60.42,0,0,0-2.23-9.1c-1.92-6-4.71-11.75-7-17.85a193,193,0,0,1-5.9-18.46,36.06,36.06,0,0,0-3.38-8.53C40.51,2.85,29.21.6,21.76,5.56a20.28,20.28,0,0,0-9,15c-.61,4.78,1,9.09,2.71,13.52a8.23,8.23,0,0,1,0,5.58l-.56,0a13.7,13.7,0,0,1-3.48-.81,30.8,30.8,0,0,0-6.48-1.31s.05,0,0,0a4.65,4.65,0,0,0,.64,1.91c3.37,7.45-4,14-3.32,21.24C2.61,64,4.36,67.49,4.92,71s.3,7.2,1.92,10.27C13.56,93,27.32,103.12,41.3,100.85A46.67,46.67,0,0,0,54.66,96.1a16.85,16.85,0,0,1,4.16-4.67l.75.67c-2.41,4.1-6.62,6.57-10.82,8.56a27.31,27.31,0,0,1-21.89.84A44.26,44.26,0,0,1,4.75,82.33C3,79,3.11,75,2.64,71.4S.43,64.64.06,60.8a16.42,16.42,0,0,1,1.33-7.55C3,49.07,5.63,44.5,3.77,40.18a9.5,9.5,0,0,1-.72-1.88,2.8,2.8,0,0,1,0-1.36,1.89,1.89,0,0,1,1.22-1.3,2.85,2.85,0,0,1,1.33-.07c.91.14,1.86.27,2.75.47,2.38.62,5,1,6.9,2.63l-.69.38c-.21-3.18-1.85-5.75-2.92-8.79a23.34,23.34,0,0,1,1.71-19.59C19.46-.54,34.8-3.74,44.4,5c3.8,3.5,5.68,8.67,7.06,13.36,1.74,6.2,3.64,12.19,5.92,18.18,3.36,8.87,7.9,18,9.3,27.61.46,3.08,1.34,6.33,1,10a37.48,37.48,0,0,1-2.81,9.58c-1.34,3-3.39,5.59-5.21,8.3l-.87-.5Z"/><path class="cls-3" d="M23.42,99.34v8a2,2,0,0,1-.22,1.15,2,2,0,0,1-.79.62,35.25,35.25,0,0,0-3.61,2c.82,1.52,3.6,2.77,5.3,2.82a9.4,9.4,0,0,0,3.69-.93l4.56-1.82-4.27-2.54a1.6,1.6,0,0,1-.51-.42,1.53,1.53,0,0,1-.18-.9l0-5.29a1.26,1.26,0,0,0-.15-.77,1.29,1.29,0,0,0-.55-.39Z"/><path d="M23.68,99.76c.22,2.79.48,5.13.47,7.68a3.18,3.18,0,0,1-.15,1.15,2,2,0,0,1-.9,1c-1.32.76-2.74,1.29-4,2,0,0,.15-.64.15-.64a8.27,8.27,0,0,0,4.4,2.09c1.72.23,3.22-.59,4.94-1.14,1.18-.4,2.37-.78,3.58-1.11l-.07.89c-.76-.47-3.92-2.31-4.61-2.77a1.63,1.63,0,0,1-.59-1.32l0-2.15c0-.69,0-2.51,0-3.19,0-.38,0-.63-.08-.66-1-.55-2.16-1.15-3.17-1.83Zm-.53-.84c1.07.39,2.25.83,3.3,1.33a4,4,0,0,1,1.13.65,1.81,1.81,0,0,1,.35,1.36c0,1.52,0,3.78,0,5.31-.05.65.59.73,1.06,1.07l3.65,2.18.76.45c-1.37.75-2.78,1.47-4.19,2.11-1.7.76-3.76,1.83-5.81,1.45a6.72,6.72,0,0,1-5-3.41l-.17-.37a21,21,0,0,1,4.14-2.69c.41-.3.32-.4.36-.93,0-2.85.24-5.91.46-8.51Z"/><path class="cls-3" d="M52.62,92.75a2.23,2.23,0,0,0,.11,1.11,59.14,59.14,0,0,1,1.94,11.2,1.54,1.54,0,0,1-.67,1.57l-4,3.85c-.67.64-2,1.69-1.87,2.66,2.77.55,5.71.63,8.52,1.06s5.72,1,8.55,1.64a2.38,2.38,0,0,0,1.24,0,2.55,2.55,0,0,0,.86-.64,18.36,18.36,0,0,1,6.3-4.12c1.68-.66,3.56-1.14,4.76-2.45L61.7,104a1.74,1.74,0,0,1-.73-.33,1.71,1.71,0,0,1-.42-.81,61,61,0,0,0-5.8-13L53,92a2,2,0,0,0-.39.65A.14.14,0,0,0,52.62,92.75Z"/><path d="M53.14,92.88a15.09,15.09,0,0,0,.63,2.56,46,46,0,0,1,1.69,10.29,2.7,2.7,0,0,1-1.06,1.63l-2.13,2c-1,1-2.2,1.88-3.18,2.86a1.84,1.84,0,0,0-.51.91s-.4-.45-.4-.45c2.67.21,5.36.14,8.15.4,3.09.27,6.74,1,9.66,1.58a18.92,18.92,0,0,1,4.49-3.35c2.34-1.39,5.32-1.43,7.47-2.94,0,0,.23.82.23.82-5.41-1.22-10.76-2.68-16.09-4.23a3.46,3.46,0,0,1-1.81-.84,11.89,11.89,0,0,1-1-2.7,70.76,70.76,0,0,0-4.92-11.3l.82,0L54,91.58c-.19.32-.85,1-.9,1.3Zm-1-.26c.22-.76.74-1.11,1.12-1.68.3-.35,1.29-1.62,1.57-2a55.22,55.22,0,0,1,6.6,13.87c.1.21,0,.17.23.27s.6.17.91.26c5.59,1.54,11.16,3.17,16.64,5.07l-.48.57c-1.79,2.37-4.79,2.75-7,4.36a32.09,32.09,0,0,0-4.31,3.51c-1.08.73-2.43.26-3.46,0-5.44-1.41-10.85-1.88-16.32-3.39-.18-1.42.75-2.36,1.59-3.22l2-2.06,2.08-2c.67-.67.6-.52.56-1.24a64.77,64.77,0,0,0-1.6-10.64,3.64,3.64,0,0,1-.16-1.7Z"/><path class="cls-4" d="M60,107.67a2.92,2.92,0,0,0,.86,2.64,4.8,4.8,0,0,0,2.54.88c.38.07.81,0,.84-.49a2.72,2.72,0,0,0-.64-1.51c-1-1.41-1.9-1.38-3-1.68a.62.62,0,0,0-.48,0A.5.5,0,0,0,60,107.67Z"/><path d="M16.36,88.51A15.73,15.73,0,0,1,12.49,88c-1.84-.88-3-3.07-4.59-4.27-.58-.42-1.24-.87-1.8-1.32l.53-.85a16.41,16.41,0,0,1,2.71,1.61c1.38,1,2.28,2.54,3.62,3.53a19.62,19.62,0,0,1,3.51,1.37l-.11.42Z"/><path d="M12.83,78c-3.06-.15-5.77-2.06-7.72-4.32l.63-.78c2.58,1.4,5.13,2.63,7.27,4.67l-.18.43Z"/><path d="M17.67,68.9c-1.68-3.61-4.05-7.49-7.74-9A5.43,5.43,0,0,1,7,57.69l-.79-1.23A38.82,38.82,0,0,1,3.44,51.3l.81-.59c2,1.6,4.11,4.32,5.77,6,5.56,1.68,6.73,7.2,8.14,12l-.49.2Z"/><path d="M22.71,53.86c-2.85-5.09-6.48-9.28-9.88-14L14,38.72a23.06,23.06,0,0,1,3.46,2.86c3.17,3.19,6.06,7.5,5.61,12.2l-.36.08Z"/><circle id="eye2" cx="18.82" cy="17.46" r="2.5"/><circle id="eye1" cx="39.25" cy="12.13" r="2.5"/><path class="cls-5" d="M34.36,17.21S47,18.56,46,21c0,0-11.88,16.93-29.65,10.11,0,0,.07-.8,11.26-11.25,0,0,1-.92,2.15-4.92C29.77,14.91,29.84,14.11,34.36,17.21Z"/><path class="cls-6" d="M29.77,14.91c-1.16,4-2.15,4.92-2.15,4.92C16.43,30.28,16.36,31.08,16.36,31.08,34.13,37.9,46,21,46,21c1-2.41-11.65-3.76-11.65-3.76C29.84,14.11,29.77,14.91,29.77,14.91Z"/><path d="M16.22,30.6a60,60,0,0,0,14.39-6A43.31,43.31,0,0,1,46,20.48l.09,1a48.94,48.94,0,0,0-14.87,4.24,43.37,43.37,0,0,1-7.13,3.45,72.86,72.86,0,0,1-7.56,2.4l-.27-1Z"/></g></g></svg>