<svg xmlns="http://www.w3.org/2000/svg" viewBox="0 0 70.09 129.9"><defs><style>.cls-1{fill:#343235;}.cls-2{fill:#fff;}.cls-3{fill:#ff6405;}.cls-4,.cls-6{stroke:#000;stroke-miterlimit:10;}.cls-5{fill:#efd32c;}.cls-6{fill:none;}</style></defs><g id="Layer_2" data-name="Layer 2"><g id="Layer_1-2" data-name="Layer 1"><ellipse class="cls-1" cx="37.73" cy="118.43" rx="24.58" ry="9.18"/><ellipse class="cls-1" cx="15" cy="125.61" rx="10" ry="4" transform="translate(-21.13 4.38) rotate(-9.78)"/><path class="cls-2" d="M1,37.57l12,3.15a15.63,15.63,0,0,0,5.89.76,8,8,0,0,0,6.71-6.43c.93-5.39.18-11.31,1.89-16.51C29.24,13.18,32.18,8,36.71,4.68c3.89-2.9,9.79-4.63,14.56-3s10.24,5.69,12.88,9.84C66.23,14.8,68,19.14,67.65,23c-.38,4.18-2.35,7.85-3,12a54.67,54.67,0,0,0-.47,14c.51,4.56.5,9.19,1.45,13.7,1,4.75,3.46,9,2.14,14-1.77,6.7-4,13.39-9,18.17-9.26,8.83-23.51,11.32-35.86,8C14.6,100.64,10.13,91.18,7,83.22A54.86,54.86,0,0,1,3.18,57.3c.61-5.83,2.12-12.16-.81-17.24a27.11,27.11,0,0,0-2-2.91"/><path d="M1.11,37.08c3,.52,6,1.19,9,1.91S16,40.81,18.7,40.5a7.2,7.2,0,0,0,6.07-7c.63-5.37.06-10.84,2-16.08,2.08-5.94,5.67-11.69,11.31-14.89a17,17,0,0,1,18.45.43c6.91,4,12.56,11.27,12.64,19.54-.11,4.7-2.55,9.15-3,13.52-1,6-.51,12,0,17.93a60.77,60.77,0,0,0,1,8.88c.58,2.82,1.81,5.71,2.21,9s-.67,6.46-1.63,9.5a35.82,35.82,0,0,1-6.45,12.56C51.71,104.71,35.67,108.24,22,104.1,12.47,100.84,8.56,90.61,5.2,82a56,56,0,0,1-2.61-27.6c.73-5.15,1.48-10.51-1.49-15l-1.1-2,.79-.62c5,4.44,4.43,11.87,3.64,17.83A53,53,0,0,0,5,72.58,67.22,67.22,0,0,0,11.1,89.45,33.83,33.83,0,0,0,16,96.78a15.14,15.14,0,0,0,6.9,4.62,41.78,41.78,0,0,0,17.49.92c12.7-2,21.67-9,25-21.74.75-2.76,1.8-5.5,1.3-8.42s-1.63-5.56-2.39-8.7c-1.28-6.22-1.52-12.28-2-18.53A46.75,46.75,0,0,1,64,30.85c.67-2.34,2.14-6.08,2.19-8.48.11-4.19-1.78-8.43-4.29-11.76A26.85,26.85,0,0,0,51.43,2.94c-4-1.58-8.57-.58-12.3,1.46C34,7.28,30.68,12.62,28.75,18.1c-1.83,4.9-1.26,10.44-1.9,15.63a9.22,9.22,0,0,1-7.92,8.75c-3.32.3-6.23-.92-9.32-1.68C6.67,40,3.74,39.09.86,38.05l.25-1Z"/><path d="M24.36,50.91c.78-2.65,1.69-5.31,1.54-8a17.81,17.81,0,0,0-1-4.75,3.32,3.32,0,0,1,.25-1.65c.1-.32.36-1.2.44-1.51,0-.08,0-.16,0-.23s0-.14,0,0l.92-.37a1.13,1.13,0,0,1,0,.52c-.13.91-.54,2-.64,2.92,0,0,0-.13,0-.08l.12.25c2.39,5,1.42,8.61-1.17,13.19l-.58-.23Z"/><path d="M18.59,66.06c-.93-4.57-4.51-6-7.82-8.85a42.62,42.62,0,0,1-4.22-4.9,13.72,13.72,0,0,1-2.87-5.85l.79-.33a15.41,15.41,0,0,0,3.27,5.16,61.83,61.83,0,0,0,4.32,4.49c1.58,1.45,3.48,2.34,5,3.91A8,8,0,0,1,19.44,66l-.85,0Z"/><path d="M10.52,75.21A21.56,21.56,0,0,1,2.75,68l.81-.59c.57.66,1.11,1.33,1.68,2a50.21,50.21,0,0,0,5.54,5.47l-.26.37Z"/><path d="M12.57,85.26A18.75,18.75,0,0,1,6.24,82.5l.53-.85c1,.56,1.93,1.13,2.93,1.65s2,1,3,1.49l-.16.47Z"/><path class="cls-3" d="M22.43,112l.95-7.22a7.15,7.15,0,0,0,.07-1.13,5.93,5.93,0,0,0-.28-1.38l-2.46-8.47-4.7,1a5.61,5.61,0,0,1-1.14.17,5.6,5.6,0,0,1-1.4-.22L6.12,93a3.38,3.38,0,0,0-.86-.21c-.41,0-.32,0-.33.53,0,.69,0,1.38,0,2.07V99.5a2.38,2.38,0,0,1-.07.7,2.47,2.47,0,0,1-.38.67l-2.84,3.9,6.9,5.46a3.41,3.41,0,0,0,.73.48,3.12,3.12,0,0,0,1,.2Z"/><path d="M22.12,111.63c0-1.7,0-3.17.08-4.58s.76-2.71.41-4.1l-2.38-9,.59.34c-1.32.33-4.06,1-5.36,1.28a4.75,4.75,0,0,1-2-.14L6.33,93.76c-.31-.05-.77-.22-1-.28H5.18s.09,0,.32-.19.12-.42.14-.26c0,1.15,0,4.28,0,5.48a6.06,6.06,0,0,1-.16,2.09,4.63,4.63,0,0,1-.59.91c-.9,1.21-1.85,2.42-2.87,3.55L2,104.38c2.47,1.67,5.05,3.7,7.42,5.5a3.92,3.92,0,0,0,1.69.34c3.63.35,7.21.85,11.05,1.41Zm.62.78c-3.76-.13-7.78-.32-11.75-.67a4.88,4.88,0,0,1-2.46-.56C6,109.2,3.37,107,1,104.86c.85-1.43,1.76-2.85,2.73-4.2.61-.72.43-1,.46-2.14s0-4.3,0-5.45a.92.92,0,0,1,.2-.71c.41-.35.43-.24.7-.3a1.94,1.94,0,0,1,.71.08c.17.08,7.46,2,7.9,2.06a3.62,3.62,0,0,0,1.56.17c1.17-.21,4.11-.8,5.32-1l.46-.09.13.44L24,102.6c.58,3.15-.42,6.88-1.25,9.81Z"/><path class="cls-4" d="M17,106.61a.2.2,0,0,1-.2,0l-2.06-.35a.68.68,0,0,1-.3-.11,1.07,1.07,0,0,1-.26-.39,5.92,5.92,0,0,0-1.37-1.86,2.91,2.91,0,0,1-.61-.65,2.18,2.18,0,0,1-.25-1.3c.06-.21.07-.18.29-.16a3,3,0,0,1,1.94.9,13.3,13.3,0,0,1,1,1.21C15.39,104.23,17.41,106.19,17,106.61Z"/><path class="cls-3" d="M46.67,104a1.11,1.11,0,0,0,0,.26,3,3,0,0,0,.55,1.27,17.06,17.06,0,0,1,2.22,5.73,4.94,4.94,0,0,1,0,2.13,5.26,5.26,0,0,1-1,1.8L44.73,120a47.46,47.46,0,0,1,7.92,2.86,6.35,6.35,0,0,0,3.09.88,6.75,6.75,0,0,0,3.06-1.5,37.76,37.76,0,0,1,7.66-4.11c-3.64-3.43-8.64-4.19-12.94-6.42a.83.83,0,0,1-.39-.3,1.16,1.16,0,0,1-.09-.72,32.43,32.43,0,0,0-.39-10.18c-1.16.51-2.72,1.56-3.88,2.07C48.16,102.87,46.82,103.09,46.67,104Z"/><path d="M47.29,104.07c-.07.31.41.93.83,1.62A17.29,17.29,0,0,1,50,110.05a6.5,6.5,0,0,1,.19,3.81,12.68,12.68,0,0,1-2.08,3c-1,1.17-1.93,2.34-2.95,3.47l-.27-.79a30.17,30.17,0,0,1,8.64,2.71c1.89.94,2.93.6,4.58-.61a27.33,27.33,0,0,1,8.19-3.95l-.15.83c-3.76-3.15-8.75-3.88-13.08-6.11a1.55,1.55,0,0,1-.82-1.33c0-.43.05-.62.06-.9a38.37,38.37,0,0,0-.11-9.52l.68.33c-1.5.71-3.05,1.94-4.7,2.47-.52.18-.89.47-.86.62Zm-1.23-.2c.25-1.23,1.56-1.47,2.49-1.8,1.48-.66,2.84-1.6,4.41-2.23a26.55,26.55,0,0,1,.92,10.45c0,.25-.05.6,0,.72s0,0,0,0-.07-.07,0,0c4.47,2.3,10,3.29,13.44,7.29-1.93,1-3.88,2.09-5.71,3.26-2.23,1.24-4.38,3.9-7.31,3-3.27-1.34-6.33-2.78-9.64-4l-.62-.26.35-.53c1.21-1.88,2.59-3.76,3.89-5.56a2.66,2.66,0,0,0,.54-1.66,16.25,16.25,0,0,0-1.84-6.12c-.39-.78-1-1.47-.87-2.5Z"/><path class="cls-4" d="M54.19,116.82a1.63,1.63,0,0,0-.66.45s-.08.09-.07.14,0,.07.07.1a1.47,1.47,0,0,0,1,.55,1.45,1.45,0,0,0,.95-.56.24.24,0,0,0,.09-.16.2.2,0,0,0-.08-.13A1.27,1.27,0,0,0,54.19,116.82Z"/><path d="M67.85,66.44c4.36,6.18,2.07,18.1-4.41,22.09l-.56-.83c5.6-4,7.66-14.82,4.14-20.71l.83-.55Z"/><circle id="eye2" cx="39.74" cy="11.29" r="2.5"/><circle id="eye1" cx="61.15" cy="15.53" r="2"/><path class="cls-5" d="M55.94,18.27s10,7.81,7.92,9.33c0,0-19,8.15-30.53-7,0,0,.48-.64,15.51-3.63,0,0,1.32-.27,4.4-3.06C53.24,13.9,53.72,13.26,55.94,18.27Z"/><path class="cls-6" d="M53.24,13.9c-3.08,2.79-4.4,3.06-4.4,3.06-15,3-15.51,3.63-15.51,3.63,11.52,15.16,30.53,7,30.53,7,2.13-1.52-7.92-9.33-7.92-9.33C53.72,13.26,53.24,13.9,53.24,13.9Z"/><path d="M33.47,20.11a60.22,60.22,0,0,0,15.4,2.45,43.57,43.57,0,0,1,15.22,4.58l-.45.9a48.74,48.74,0,0,0-14.87-4.22A44.16,44.16,0,0,1,40.89,23a74.53,74.53,0,0,1-7.69-1.93l.27-1Z"/></g></g></svg>