<svg xmlns="http://www.w3.org/2000/svg" viewBox="0 0 73.82 139.07"><defs><style>.cls-1{fill:#fff;}.cls-2{fill:#343235;}.cls-3{fill:#ff6207;}.cls-4,.cls-5,.cls-7{fill:none;stroke:#000;stroke-miterlimit:10;}.cls-4{stroke-width:2.11px;}.cls-5{stroke-width:1.45px;}.cls-6{fill:#efd32c;}</style></defs><g id="Layer_2" data-name="Layer 2"><g id="Layer_1-2" data-name="Layer 1"><rect class="cls-1" x="10.73" y="39.44" width="22" height="59"/><rect class="cls-1" x="7.6" y="65.77" width="11.45" height="20.85" rx="3.7" transform="translate(-17.66 5.32) rotate(-13.69)"/><path class="cls-1" d="M23.21,104.17l.83.3c28.66,5.06,47.45-19,40.19-44.53-2.69-13,7.79-20.47,8.07-37.76s-17.86-26.27-30-17C26.11,14.78,25.18,41,22,47"/><path d="M23.28,104c26.89,4.19,47.1-16.93,39.63-43.68a23.12,23.12,0,0,1,.31-10.91,84.25,84.25,0,0,1,3.57-9.82c2.55-6.14,4.29-12.65,3.92-19.29C70.09,6.67,54.56-2.21,43.26,6.41,33,12.54,29.13,24.78,26.12,35.73c-1,3.48-2,8.26-3.63,11.5l-.89-.46c1.34-3.67,1.67-7.69,2.53-11.51a89.65,89.65,0,0,1,3.06-11.68C29.84,15.85,34.3,8.21,41.58,3.92c5.21-4.3,14.24-5.36,20.84-1.69A21.43,21.43,0,0,1,73.77,20.08c.4,7.15-1.49,14.15-4.2,20.62A86.26,86.26,0,0,0,66,50.14a20.82,20.82,0,0,0-.45,9.42,40.29,40.29,0,0,1,.79,18.62A34,34,0,0,1,24,104.72h0l-.81-.36.13-.36Z"/><ellipse class="cls-2" cx="38.29" cy="119.72" rx="24.25" ry="9.75"/><ellipse class="cls-2" cx="15.91" cy="131.07" rx="11" ry="8"/><path class="cls-1" d="M9.7,72.94c-12.25-13.54.36-26.52.54-40.72,6.92-.91,13.3,4.75,14.3,4.75"/><path d="M9.33,73.27C.2,63.87,4,53.32,7.22,42.4A36.43,36.43,0,0,0,8.84,31a18,18,0,0,1,5.48-.12c3.83.58,7.21,2.53,10.5,4.39.22.1-.11-.06-.28,0v3.41A5.75,5.75,0,0,1,22,37.51l-1.59-1c-3-1.82-6.42-3.26-10-2.93l1.21-1.35A40.45,40.45,0,0,1,9.46,43.06c-3.53,10.33-7.75,20.26.61,29.54l-.74.67Z"/><path class="cls-1" d="M5.54,66a20.09,20.09,0,0,0,.13,8.56,14.6,14.6,0,0,0,1.68,3.84c.56.89,1.76,1.79,2.09,2.75a2.84,2.84,0,0,1,.1.65L9.82,86"/><path d="M6,66c-.43,4.19-.25,8.6,2.21,12.14.71.89,2.23,2.27,2,3.78l0,1.32c0,.89,0,1.77,0,2.66l-1,.07c-.21-1.26-.38-2.67-.51-4s-1.06-1.71-1.9-2.85a12.4,12.4,0,0,1-1.38-2.5,17.2,17.2,0,0,1-.49-10.82L6,66Z"/><path class="cls-1" d="M18.76,64.25C21.93,53.72,3.87,40.12,8.54,44"/><path d="M18.28,64.1C20,56.42,12.16,48.69,7.15,44.33c-.07-1-.28,2.13,1.58-1.75l-.06-.07c-.07-.08-.05,0,0,0l.06.06.61.48-1.57,1.9c-.18-.17-.72-.63-.88-.81L6.81,44c1.86-3.88,1.66-.74,1.59-1.74A20.33,20.33,0,0,1,10.2,44c4.92,5.29,11.15,12.7,9,20.44l-1-.29Z"/><path class="cls-3" d="M23.59,90.62a25.45,25.45,0,0,1-.52,13.84l-2.36,9.23c-9.35,1-17.93-6.41-18.84-9.2a10.43,10.43,0,0,1-.81-3.61C8.78,96.82,10.45,87,10.45,87,19.56,94,23.59,90.62,23.59,90.62Z"/><path class="cls-4" d="M20.71,113.69c-9.35,1-17.93-6.41-18.84-9.2a10.43,10.43,0,0,1-.81-3.61C8.78,96.82,10.45,87,10.45,87c9.11,7,13.14,3.61,13.14,3.61a25.45,25.45,0,0,1-.52,13.84Z"/><path d="M12.94,97.91c.67-3.58,3.51,5.35,2.89,8.25a12,12,0,0,1-2.89-8.23Z"/><path class="cls-3" d="M61.83,116.78c-2.69,2-6.2,4.76-9.57,4.93-2.75-.59-12.19-.13-9.37-4.62,7.3-5,1.67-7,.85-13.61l6.57-2.63C52.37,109.58,50.46,114.9,61.83,116.78Z"/><path class="cls-5" d="M50.31,100.85c2.06,8.73.15,14.05,11.52,15.93-2.69,2-6.2,4.76-9.57,4.93-2.75-.59-12.19-.13-9.37-4.62,7.3-5,1.67-7,.85-13.61Z"/><path class="cls-6" d="M63.54,22s7,9,5,10c0,0-17,4-24-12,0,0,.5-.5,13.37-.5,0,0,1.13,0,4.13-2C62,17.46,62.54,17,63.54,22Z"/><path class="cls-7" d="M62,17.46c-3,2-4.13,2-4.13,2-12.87,0-13.37.5-13.37.5,7,16,24,12,24,12,2-1-5-10-5-10C62.54,17,62,17.46,62,17.46Z"/><path d="M44.79,19.53A47.37,47.37,0,0,0,57.13,24.6a35.39,35.39,0,0,1,11.74,7l-.65.76a54.42,54.42,0,0,0-5.49-3.77c-3.94-2.6-8.28-3.07-12.42-5a59.41,59.41,0,0,1-6-3.19l.49-.87Z"/><circle id="eye2" cx="52.54" cy="11.97" r="2.5"/><circle id="eye1" cx="70.73" cy="20.44" r="2"/></g></g></svg>