<svg xmlns="http://www.w3.org/2000/svg" viewBox="0 0 76.48 140.02"><defs><style>.cls-1{fill:#fff;}.cls-2{fill:#343235;}.cls-3,.cls-5,.cls-6{fill:none;stroke:#000;stroke-miterlimit:10;}.cls-4{fill:#f46a16;}.cls-5{stroke-width:2.81px;}.cls-6{stroke-width:1.89px;}.cls-7{fill:#efd32c;}</style></defs><g id="Layer_2" data-name="Layer 2"><g id="Layer_1-2" data-name="Layer 1"><path class="cls-1" d="M65.79,77a9,9,0,0,1,.72,2.74,9.62,9.62,0,0,1,.29,1.57c0,.42-.14.84-.13,1.27a7.15,7.15,0,0,0,.22,1.52,4,4,0,0,1,.17.56c0-.25,0-.08-.14.12a3.94,3.94,0,0,0-.6,3.21,1.44,1.44,0,0,0,1,1A1.68,1.68,0,0,0,69,88.59a1.65,1.65,0,0,0,.43-.69c0-.14.11-.74.05-.43a1.5,1.5,0,0,0-2.89-.8,5.57,5.57,0,0,0-.13,3.47L66.56,89c.13-.26,0,0-.13.1a2.92,2.92,0,0,0-.31.61,1.52,1.52,0,0,0,1,1.85,1.54,1.54,0,0,0,1.85-1l0-.1-.39.66a1.71,1.71,0,0,0,.56-1.94,2.78,2.78,0,0,1,.2-1.65l-2.89-.8c0,.08-.16.76-.06.43l.39-.66-.08.07,1.46-.39h-.09l1,1c-.09-.39.1-.58.3-.9a2.91,2.91,0,0,0,.56-1.62c0-.88-.52-1.65-.34-2.53a9.27,9.27,0,0,0-.38-3.46,9.9,9.9,0,0,0-1-3.2A1.5,1.5,0,0,0,65.79,77Z" transform="translate(0 0)"/><path class="cls-1" d="M65.93,90.69l-1.65,2.88c-.23.4-.47.8-.74,1.18l-.1.14c-.12.17.05,0,.08-.09a3.47,3.47,0,0,1-.25.29,4.23,4.23,0,0,1-.53.51,1.52,1.52,0,0,0-.44,1.06,1.5,1.5,0,0,0,.44,1.06,1.53,1.53,0,0,0,2.12,0,9.32,9.32,0,0,0,2-2.56l1.69-3A1.52,1.52,0,0,0,68,90.15a1.55,1.55,0,0,0-2.06.54Z" transform="translate(0 0)"/><ellipse class="cls-2" cx="40.46" cy="127.5" rx="24.25" ry="9.75"/><ellipse class="cls-2" cx="65.7" cy="128.91" rx="8.36" ry="5.5" transform="translate(-17.68 10.66) rotate(-8.18)"/><path class="cls-1" d="M25.78,62c.94-8.1,1.65-16,.64-24.19C25.88,33.46,25,29,25.65,24.66c1.44-9.11,6.9-17.32,15.56-20.76a37.14,37.14,0,0,1,5.65-1.71C57.17-.07,64.83,7,67.22,16.66c1.33,5.36.56,11.39.56,16.88,0,6.64-1.49,13.3-1.82,19.94a177.19,177.19,0,0,0,.19,20.74c.39,5.89,1.79,12.3-.71,17.92-1.71,3.87-4.78,7.22-7,10.8-3.11,4.93-4.78,8.46-10.12,11.43a40.78,40.78,0,0,1-12.36,4.78C25.65,121,14.65,116.23,8.53,107.87c-4-5.48-6.18-15.47-6.73-22.12C.94,75.28-.41,61.33,9.19,54.32,15.3,49.86,21,44.87,26.78,40" transform="translate(0 0)"/><path d="M25.28,62c.26-6.82.6-13.6,0-20.23-.29-3.31-1-6.56-1.41-10.07A29,29,0,0,1,32.82,7,28.59,28.59,0,0,1,47.52.27c9.82-1.78,18.26,5.46,20.72,14.65,1.55,5.06,1.06,10.59.82,15.68C69,34,68.85,37.48,68.4,40.88a152.75,152.75,0,0,0-.75,40.58c.8,8.31-1.76,12.94-6.62,19.32-2,2.7-3.47,5.72-5.55,8.6a21.53,21.53,0,0,1-8.15,6.76A41.42,41.42,0,0,1,37.58,120c-12.15,2.93-25.86-3.29-31.79-14.27C1.82,97.89.63,89.11.17,80.46-.2,73.54-.24,66.22,3,59.83a18.56,18.56,0,0,1,5.21-6.2c6.2-4.5,11.79-9.66,18.22-14l.64.77A138.67,138.67,0,0,1,11.66,53.9a25.63,25.63,0,0,0-4.61,4C1,65.6,2.33,76.19,3,85.37c.88,8,2.42,16.81,7.63,23.22C17,116,27.45,120,37.06,117.74a39.43,39.43,0,0,0,13.41-6.12c4-3.13,5.88-7.89,9-12,2-2.77,4.13-5.42,5.36-8.41,1.88-4.57,1.09-9.87.64-14.75-.45-5.13-.61-10.25-.65-15.4-.36-10.26,2-20.34,1.77-30.59.07-5.06.43-10-1.15-14.75C63.28,8.3,56.22,2,48.1,3.79,36.37,5.6,28.44,14.93,27.28,26.53c-.34,5,.93,9.85,1,15a90.79,90.79,0,0,1-2,20.54l-1-.12Z" transform="translate(0 0)"/><path d="M15.21,78.08A31.64,31.64,0,0,0,13.6,71c-.29-.86-1.4-3.15-1.82-4C10,63.42,8,59.94,6.33,56.27l.89-.47c4.16,7.19,9.45,13.67,9,22.2l-1,.08Z" transform="translate(0 0)"/><path d="M9.72,88.1c-4.18-2.16-6.56-6.59-8.37-10.74l.85-.52a26.88,26.88,0,0,1,2.05,2.75C6,82.35,7.94,85.32,9.72,88.1Z" transform="translate(0 0)"/><path class="cls-3" d="M10.25,100.15a4.19,4.19,0,0,1-2.89-.25,4.06,4.06,0,0,1-.76-.67L3.56,96" transform="translate(0 0)"/><path d="M55.75,116.54c-.62-.07-.58-.75-.44-1.17.75-2.32,1.87-4.77,4.18-5.91a1.61,1.61,0,0,1,1.56.16l-.55.84c-1,.19-1.64,1.51-2.26,2.29a18.86,18.86,0,0,0-2,3.19.53.53,0,0,0-.12-.26.43.43,0,0,0-.32-.14l0,1Z" transform="translate(0 0)"/><path d="M66.91,70.6c.83,2.67,2.06,5.16,3,7.94,2.61,9.51-.92,17.55-9.53,22.23l-.29-.46C67.81,94.86,70.61,88.19,68.48,79c-.82-2.59-2-5.24-2.8-8l1.23-.37Z" transform="translate(0 0)"/><path class="cls-4" d="M74.9,101.12l.06.08-2,9.13a7.53,7.53,0,0,1-.78,2.33,6.59,6.59,0,0,1-1.55,1.61,57.1,57.1,0,0,1-8.3,5.54,9.07,9.07,0,0,1-2.55,1c-1.38.26-3.35-.23-3.51-2a8.7,8.7,0,0,0-.14-1.69c-.31-1.2-1.46-2-1.9-3.13a3,3,0,0,1-.19-.87,6.77,6.77,0,0,1,.87-3.36,1.19,1.19,0,0,1,.45-.6,1.11,1.11,0,0,1,.85.06l3.39,1.16a.73.73,0,0,0,.5,0,.93.93,0,0,0,.33-.35L64.14,104a2.7,2.7,0,0,1,.75-.91,2.21,2.21,0,0,1,1-.27l5.75-.7A6.24,6.24,0,0,0,74.9,101.12Z" transform="translate(0 0)"/><path class="cls-5" d="M74.9,101.12a6.24,6.24,0,0,1-3.25,1l-5.75.7a2.21,2.21,0,0,0-1,.27,2.7,2.7,0,0,0-.75.91l-3.69,6.11a.93.93,0,0,1-.33.35.73.73,0,0,1-.5,0l-3.39-1.16a1.11,1.11,0,0,0-.85-.06,1.19,1.19,0,0,0-.45.6,6.77,6.77,0,0,0-.87,3.36,3,3,0,0,0,.19.87c.44,1.16,1.59,1.93,1.9,3.13a8.7,8.7,0,0,1,.14,1.69c.16,1.76,2.13,2.25,3.51,2a9.07,9.07,0,0,0,2.55-1,57.1,57.1,0,0,0,8.3-5.54,6.59,6.59,0,0,0,1.55-1.61,7.53,7.53,0,0,0,.78-2.33l2-9.13Z" transform="translate(0 0)"/><path d="M69.27,108v3a2.8,2.8,0,0,1-2,1c-.82,0-1.89-.37-2-1s1-1.43,1.88-2A8.91,8.91,0,0,1,69.27,108Z" transform="translate(0 0)"/><path class="cls-3" d="M67.27,112a2.8,2.8,0,0,0,2-1v-3a8.91,8.91,0,0,0-2.12,1c-.89.57-2,1.3-1.88,2S66.45,112.06,67.27,112Z" transform="translate(0 0)"/><path class="cls-4" d="M29.34,128c1.59,1.88,3.62,5.8,6.49,5.6-.82,1.08-3,1.87-4.26,2.53-1.91,1-3.86,2-5.79,2.95,0,0-15-2.56-13.51-3.28a26.54,26.54,0,0,0,8.45-7.4c2-2.65,3.26-6.05,2.6-9.31a44.35,44.35,0,0,1,5.41,0,49.12,49.12,0,0,1,0,7.38,2.31,2.31,0,0,0,.08.74A2.2,2.2,0,0,0,29.34,128Z" transform="translate(0 0)"/><path class="cls-6" d="M25.78,139s-15-2.56-13.51-3.28a26.54,26.54,0,0,0,8.45-7.4c2-2.65,3.26-6.05,2.6-9.31a44.35,44.35,0,0,1,5.41,0,49.12,49.12,0,0,1,0,7.38,2.31,2.31,0,0,0,.08.74,2.2,2.2,0,0,0,.49.76c1.59,1.88,3.62,5.8,6.49,5.6-.82,1.08-3,1.87-4.26,2.53C29.66,137.12,27.71,138.07,25.78,139Z" transform="translate(0 0)"/><path d="M24.78,133a3.49,3.49,0,0,1,1-2,4.27,4.27,0,0,1,1.09,1.72c.1.72-1.09,1.72-1.09,1.72A1.71,1.71,0,0,1,24.78,133Z" transform="translate(0 0)"/><path class="cls-7" d="M56.43,19.88s11.91,4.49,10.33,6.57c0,0-15.76,13.4-31.24,2.31,0,0,.27-.75,13.74-8,0,0,1.19-.64,3.31-4.23C52.57,16.49,52.84,15.74,56.43,19.88Z" transform="translate(0 0)"/><path class="cls-3" d="M52.57,16.49c-2.12,3.59-3.31,4.23-3.31,4.23-13.47,7.29-13.74,8-13.74,8C51,39.85,66.76,26.45,66.76,26.45c1.58-2.08-10.33-6.57-10.33-6.57C52.84,15.74,52.57,16.49,52.57,16.49Z" transform="translate(0 0)"/><circle id="eye2" cx="39.98" cy="17.04" r="2.5"/><circle id="eye1" cx="60.49" cy="15.03" r="2.5"/><path d="M35.51,28.26A60,60,0,0,0,51,26.07,43.53,43.53,0,0,1,66.84,26l-.16,1a48.59,48.59,0,0,0-15.46.36,44,44,0,0,1-7.77,1.54,75,75,0,0,1-7.92.42l0-1Z" transform="translate(0 0)"/></g></g></svg>