<svg xmlns="http://www.w3.org/2000/svg" viewBox="0 0 71.46 127.61"><defs><style>.cls-1{fill:#343235;}.cls-2{fill:#fff;}.cls-3{fill:#ff6405;}.cls-4,.cls-6{stroke:#000;stroke-miterlimit:10;}.cls-5{fill:#efd32c;}.cls-6{fill:none;}</style></defs><g id="Layer_2" data-name="Layer 2"><g id="Layer_1-2" data-name="Layer 1"><ellipse class="cls-1" cx="37.73" cy="118.43" rx="24.58" ry="9.18"/><ellipse class="cls-1" cx="12" cy="122.61" rx="10" ry="4" transform="translate(-20.66 3.82) rotate(-9.78)"/><path class="cls-2" d="M1,37.57l12,3.15a15.63,15.63,0,0,0,5.89.76,8,8,0,0,0,6.71-6.43c.93-5.39.18-11.31,1.89-16.51C29.24,13.18,32.18,8,36.71,4.68c3.89-2.9,9.79-4.63,14.56-3s10.24,5.69,12.88,9.84C66.23,14.8,68,19.14,67.65,23c-.38,4.18-2.35,7.85-3,12a54.67,54.67,0,0,0-.47,14c.51,4.56.5,9.19,1.45,13.7,1,4.75,3.46,9,2.14,14-1.77,6.7-4,13.39-9,18.17-9.26,8.83-23.51,11.32-35.86,8C14.6,100.64,10.13,91.18,7,83.22A54.86,54.86,0,0,1,3.18,57.3c.61-5.83,2.12-12.16-.81-17.24a27.11,27.11,0,0,0-2-2.91"/><path d="M1.11,37.08c3,.52,6,1.19,9,1.91S16,40.81,18.7,40.5a7.2,7.2,0,0,0,6.07-7c.63-5.37.06-10.84,2-16.08,2.08-5.94,5.67-11.69,11.31-14.89a17,17,0,0,1,18.45.43c6.91,4,12.56,11.27,12.64,19.54-.11,4.7-2.55,9.15-3,13.52-1,6-.51,12,0,17.93a60.77,60.77,0,0,0,1,8.88c.58,2.82,1.81,5.71,2.21,9s-.67,6.46-1.63,9.5a35.82,35.82,0,0,1-6.45,12.56C51.71,104.71,35.67,108.24,22,104.1,12.47,100.84,8.56,90.61,5.2,82a56,56,0,0,1-2.61-27.6c.73-5.15,1.48-10.51-1.49-15l-1.1-2,.79-.62c5,4.44,4.43,11.87,3.64,17.83A53,53,0,0,0,5,72.58,67.22,67.22,0,0,0,11.1,89.45,33.83,33.83,0,0,0,16,96.78a15.14,15.14,0,0,0,6.9,4.62,41.78,41.78,0,0,0,17.49.92c12.7-2,21.67-9,25-21.74.75-2.76,1.8-5.5,1.3-8.42s-1.63-5.56-2.39-8.7c-1.28-6.22-1.52-12.28-2-18.53A46.75,46.75,0,0,1,64,30.85c.67-2.34,2.14-6.08,2.19-8.48.11-4.19-1.78-8.43-4.29-11.76A26.85,26.85,0,0,0,51.43,2.94c-4-1.58-8.57-.58-12.3,1.46C34,7.28,30.68,12.62,28.75,18.1c-1.83,4.9-1.26,10.44-1.9,15.63a9.22,9.22,0,0,1-7.92,8.75c-3.32.3-6.23-.92-9.32-1.68C6.67,40,3.74,39.09.86,38.05l.25-1Z"/><path d="M24.36,50.91c.78-2.65,1.69-5.31,1.54-8a17.81,17.81,0,0,0-1-4.75,3.32,3.32,0,0,1,.25-1.65c.1-.32.36-1.2.44-1.51,0-.08,0-.16,0-.23s0-.14,0,0l.92-.37a1.13,1.13,0,0,1,0,.52c-.13.91-.54,2-.64,2.92,0,0,0-.13,0-.08l.12.25c2.39,5,1.42,8.61-1.17,13.19l-.58-.23Z"/><path d="M18.59,66.06c-.93-4.57-4.51-6-7.82-8.85a42.62,42.62,0,0,1-4.22-4.9,13.72,13.72,0,0,1-2.87-5.85l.79-.33a15.41,15.41,0,0,0,3.27,5.16,61.83,61.83,0,0,0,4.32,4.49c1.58,1.45,3.48,2.34,5,3.91A8,8,0,0,1,19.44,66l-.85,0Z"/><path d="M10.52,75.21A21.56,21.56,0,0,1,2.75,68l.81-.59c.57.66,1.11,1.33,1.68,2a50.21,50.21,0,0,0,5.54,5.47l-.26.37Z"/><path d="M12.57,85.26A18.75,18.75,0,0,1,6.24,82.5l.53-.85c1,.56,1.93,1.13,2.93,1.65s2,1,3,1.49l-.16.47Z"/><path class="cls-3" d="M20.65,112l.86-6a4.17,4.17,0,0,0,.07-.93,4.49,4.49,0,0,0-.26-1.14l-2.24-7-4.3.85a5.3,5.3,0,0,1-1,.14,5.57,5.57,0,0,1-1.29-.18l-6.71-1.5A2.82,2.82,0,0,0,5,96.09c-.38,0-.3,0-.3.44s0,1.14,0,1.71v3.42a1.91,1.91,0,0,1-.06.58,2.1,2.1,0,0,1-.34.55L1.65,106,8,110.54a3.21,3.21,0,0,0,.67.4,3,3,0,0,0,.91.16Z"/><path d="M20.34,111.63a36.52,36.52,0,0,1,0-3.81c.12-1.1.67-2.3.38-3.28-.53-1.85-1.6-5.58-2.15-7.43l.57.34c-1.18.25-3.57.83-4.74,1a4,4,0,0,1-1.79,0L6.37,97.13c-.33,0-1.14-.27-1.38-.33s-.1.09.19-.15.17-.4.18-.38v.37c0,.49,0,3.43,0,4a7.24,7.24,0,0,1-.09,1.83,2.8,2.8,0,0,1-.56.9c-.86,1-1.75,2-2.7,3l-.1-.72c2.13,1.29,4.4,2.84,6.44,4.28a1.76,1.76,0,0,0,.83.39c3.69.34,7.25.77,11.13,1.34Zm.62.79c-3.39-.07-7-.21-10.61-.49a6.09,6.09,0,0,1-2.22-.37A86.11,86.11,0,0,1,1,106.12c.85-1.39,2-2.82,2.9-4.12.07-1.29,0-4,0-5.38-.14-1.39,1-1.41,2-1.05,1,.2,6.64,1.63,7.69,1.75,1.39-.08,4-.63,5.39-.85l.43-.08.14.41,2.57,7.35c.56,2.64-.34,5.86-1.16,8.27Z"/><path class="cls-4" d="M15,106.61a.2.2,0,0,1-.2,0l-2.06-.35a.68.68,0,0,1-.3-.11,1.07,1.07,0,0,1-.26-.39,5.92,5.92,0,0,0-1.37-1.86,2.91,2.91,0,0,1-.61-.65,2.18,2.18,0,0,1-.25-1.3c.06-.21.07-.18.29-.16a3,3,0,0,1,1.94.9,13.3,13.3,0,0,1,1,1.21C13.39,104.23,15.41,106.19,15,106.61Z"/><path class="cls-3" d="M47,104.16a.75.75,0,0,0,0,.26,2.84,2.84,0,0,0,.65,1.35,16.75,16.75,0,0,1,2.64,6,4.56,4.56,0,0,1,.06,2.23,5.2,5.2,0,0,1-1.22,1.9l-4.43,5.12a61.84,61.84,0,0,1,9.42,3,8.29,8.29,0,0,0,3.67.93,8.47,8.47,0,0,0,3.65-1.57,46.6,46.6,0,0,1,9.1-4.34c-4.32-3.61-10.27-4.42-15.39-6.76a1.07,1.07,0,0,1-.46-.32,1.09,1.09,0,0,1-.1-.76c.32-3.4.48-7.44-.47-10.72-1.38.53-3.24,1.64-4.61,2.18C48.81,103,47.21,103.22,47,104.16Z"/><path d="M47.65,104.27c-.08.3.5,1,1,1.7a17,17,0,0,1,2.2,4.63c1.19,3.47,0,4.78-2.32,7.21-1.11,1.21-2.23,2.41-3.4,3.58l-.26-.82A39,39,0,0,1,55,123.41c2.21,1,3.71.73,5.69-.6a34.35,34.35,0,0,1,9.72-4.19l-.16.85c-4.64-3.51-10.69-4.07-15.85-6.64a1.63,1.63,0,0,1-.59-1.54,36,36,0,0,0-.14-10.63l.66.33c-1.8.74-3.62,2-5.55,2.58-.61.17-1.17.53-1.13.7ZM46.43,104c.37-1.4,1.86-1.49,2.92-1.88,1.72-.67,3.31-1.64,5.11-2.29,1.41,3.76,1.24,7.85.95,11.74,0,0-.06-.12,0-.1l.26.12c5.06,2.32,11,3.2,15.27,7.07l.57.52-.72.34c-16.88,8-7.83,8.37-26.12,2l-.69-.26.42-.56c1.42-1.9,3.09-3.93,4.61-5.76s.24-4.22-.41-6.16a17.62,17.62,0,0,0-1.73-3.15,2.31,2.31,0,0,1-.39-1.62Z"/><path class="cls-4" d="M55.71,118.17a2.18,2.18,0,0,0-.9.68.29.29,0,0,0-.09.21.37.37,0,0,0,.09.16,2,2,0,0,0,1.39.84,2,2,0,0,0,1.28-.86.39.39,0,0,0,.12-.24.35.35,0,0,0-.1-.2A1.59,1.59,0,0,0,55.71,118.17Z"/><path d="M67.85,66.44c5.12,6.92,3,17.66-4.41,22.09l-.56-.83A15.57,15.57,0,0,0,67,67l.84-.55Z"/><circle id="eye2" cx="39.74" cy="11.29" r="2.5"/><circle id="eye1" cx="61.15" cy="15.53" r="2"/><path class="cls-5" d="M55.94,18.26s10,7.82,7.93,9.33c0,0-19,8.15-30.53-7,0,0,.48-.64,15.5-3.64,0,0,1.32-.26,4.41-3.06C53.25,13.89,53.72,13.25,55.94,18.26Z"/><path class="cls-6" d="M53.25,13.89C50.16,16.69,48.84,17,48.84,17c-15,3-15.5,3.64-15.5,3.64,11.51,15.15,30.53,7,30.53,7,2.12-1.51-7.93-9.33-7.93-9.33C53.72,13.25,53.25,13.89,53.25,13.89Z"/><path d="M33.47,20.11a60.22,60.22,0,0,0,15.4,2.45,43.57,43.57,0,0,1,15.22,4.58l-.45.9a48.74,48.74,0,0,0-14.87-4.22A44.16,44.16,0,0,1,40.89,23a74.53,74.53,0,0,1-7.69-1.93l.27-1Z"/></g></g></svg>