<svg xmlns="http://www.w3.org/2000/svg" viewBox="0 0 82.59 130.58"><defs><style>.cls-1{fill:#343235;}.cls-2{fill:#fff;}.cls-3{fill:#f36a0e;}.cls-4,.cls-6{stroke:#000;stroke-miterlimit:10;}.cls-5{fill:#efd32c;}.cls-6{fill:none;}</style></defs><g id="Layer_2" data-name="Layer 2"><g id="Layer_1-2" data-name="Layer 1"><ellipse class="cls-1" cx="39.42" cy="121.4" rx="24.58" ry="9.18"/><ellipse class="cls-1" cx="16.33" cy="117.72" rx="4" ry="7.13" transform="translate(-98.27 86.24) rotate(-66.75)"/><path class="cls-2" d="M44.56,106.31a10,10,0,0,0,2.93-1C59.46,99.44,70.63,86,69.77,72.1c-.45-7.43-3.9-14.19-6.55-21a68.56,68.56,0,0,1-4.44-23.33c-.07-3.73.14-7.57-1.12-11.08A20.75,20.75,0,0,0,51.1,8.11C45.39,3.33,36.62-.46,29.33,3c-6.9,3.32-10.47,11.77-10.84,19-.4,7.77,2.13,15.38,5.16,22.55-3.28,0-6.62.06-9.75-.94-2.25-.72-4.33-2-6.62-2.52S2.23,40.86.74,42.7c4.14,1.68,5.37,7,4.92,11.48s-2,8.94-1,13.31c.56,2.45,1.9,4.73,2,7.25.09,1.6-.32,3.22-.12,4.81a12.65,12.65,0,0,0,1.86,4.54l5.45,9.53a11.77,11.77,0,0,0,2,2.77,11.11,11.11,0,0,0,3.17,2A113,113,0,0,0,41.37,106a10.35,10.35,0,0,0,2.76.35Z"/><path d="M44.38,105c9.7-3.27,19-13,22.35-22.69,2.59-7,1.46-14.41-1.32-21.23-1.32-3.5-2.92-7-4.3-10.63a68.84,68.84,0,0,1-4.19-23c0-3.87.08-7.56-1.18-10.63s-3.81-5.73-6.63-8C40,1.66,28.55.6,22.56,12.12c-5.44,10.13-2.34,22.11,1.55,32.29l.21.55-.66.15a19,19,0,0,1-12.28-1C8,42.59,4.33,40.52,1.13,43l-.2-.78c3.94,1.38,5.6,5.87,5.78,9.7.2,4-.89,7.63-1,11.15C5.24,67,7.19,69.68,8,73.59c.37,1.89-.14,3.91,0,5.64A12.08,12.08,0,0,0,10,83.76c.92,1.42,5.74,10.62,6.89,11.61,1.9,1.63,4.62,2.48,6.93,3.57a103,103,0,0,0,10.34,3.77c3.27.83,6.92,2.32,10.27,2.32Zm.36,2.57c-2.2.27-4-.45-6-.88Q36,106,33.34,105.21c-3.59-1.1-7.13-2.34-10.61-3.77-2.69-1.23-5.53-2-7.84-4-1.65-1.46-6.19-10.25-7.45-12.2a14.68,14.68,0,0,1-2.26-5.68c-.2-2,.36-3.68.06-5.47A48.47,48.47,0,0,0,3.68,68.9a16,16,0,0,1-.52-6c.26-3.74,1.55-7.29,1.6-10.93S3.6,44.32,0,42.89a6.44,6.44,0,0,1,6.37-3c3.33.3,5.72,2,8.68,2.76s5.63.91,8.6,1.47c0,0-.47.73-.47.68-3.28-7-6.05-14.48-5.91-22.36S20.78,5.86,28.21,1.8C39-4,54.62,5.12,59.17,15.45c1.58,3.85,1.41,8,1.47,12a69,69,0,0,0,3.8,21.86c1.26,3.49,2.82,7,4.16,10.65,2.88,7.32,3.94,15.9,1,23.42A43.12,43.12,0,0,1,53,103.67c-2.64,1.59-5.09,3.33-8.22,3.93Z"/><path class="cls-3" d="M9.61,107.15a14.75,14.75,0,0,1,2.32,1.71c.67.52,1.36,1,2,1.53l3.35,2.52c.08,0,.2.19.29.21l4,1h.94c.11,0,.42-.39.49-.46l.57-.54c-.62-2.12-1.05-4.28-1.78-6.38-.33-1-1.65-1.38-2.49-1.79a32,32,0,0,0-3.47-1.43,7.84,7.84,0,0,0-1.26-.35,14.73,14.73,0,0,0-2.3,0,4.39,4.39,0,0,0-.56.63,10.27,10.27,0,0,0-.75.88A10.46,10.46,0,0,0,9.61,107.15Z"/><path d="M10.07,107a.26.26,0,0,0,.07-.22c0-.08-.06-.16,0-.14.6,0,1,.53,1.49.82,1.79,1.41,3.69,3,5.48,4.4,0,0,.88.69.8.66s-.06,0,0,0,3.62,1,3.82,1.08l-.14,0c.2,0,.73,0,.94,0,0,0-.2,0-.18,0l-.06,0,.39-.38c.09-.07.47-.43.57-.51l-.14.51c-.65-2.17-1.08-4.41-1.89-6.48-.71-.92-2.21-1.25-3.29-1.74-1.64-.62-3.2-1.39-5-1.16l-.53,0h-.07a.7.7,0,0,0,.42-.16c-.35.47-.84,1-1.19,1.46-.47.65-.86,1.37-1.39,2a.21.21,0,0,0-.12-.22Zm-.93.37c-.14-1.62,1-3,2-4.15.21-.26.62-.88,1.14-.85h.58c2-.16,3.8.82,5.53,1.58,1.32.68,2.89.94,3.77,2.32.9,2.29,1.24,4.72,2,7-.19.21-.55.56-.75.77s-.32.45-.62.59a1.65,1.65,0,0,1-.59.07,4.57,4.57,0,0,1-.74,0L18,113.94a2.07,2.07,0,0,1-1.13-.45c-2.1-1.54-4.44-2.94-6.43-4.62-.34-.36-.84-.51-1-1,0-.06-.34-.4-.3-.56Z"/><path class="cls-3" d="M27.61,103.62c.07,0,0,0,0,0,.16.32-.16.72-.33,1s-.31.4-.45.62a4,4,0,0,0-.25.69c-.08.18-.24.25-.38.37l-.47.37c-.32.25-.65.5-1,.74a15.56,15.56,0,0,1-2.13,1.24c-.37-.73-.74-1.46-1.1-2.19-.21-.42-1-1.53-.82-2,.64-1.27,1.27-2.54,1.92-3.81l3.54,2.58C26.3,103.32,27.46,103.53,27.61,103.62Z"/><path d="M27.92,103.13h0l0,0-.09,0c.27-.59-1.11.75-.65.87.13.16.08.1.18.17s.06.12.49,0c.5-.29.35-.88.34-.72,0-.11,0-.07,0-.07a1,1,0,0,1,.1.42c0,.72-.62,1.25-.91,1.78a2.22,2.22,0,0,1-.4.89c-.22.22-.84.66-1.07.86a15.49,15.49,0,0,1-3,1.89.6.6,0,0,1-.41,0c-.42-.12-.53-.63-.72-1-.48-1-.92-1.78-1.44-2.72a1.85,1.85,0,0,1-.23-1.13,29.8,29.8,0,0,1,2.42-4.48l.43.3c.76.54,2.8,2,3.52,2.49a9.83,9.83,0,0,1,1.5.4Zm-.62,1,.05,0a5.5,5.5,0,0,0-.58-.16,3.33,3.33,0,0,1-1-.34c-.74-.57-2.69-2-3.47-2.59l.74-.18a37.71,37.71,0,0,1-1.76,3.79c.38.88,1.16,2.09,1.57,3,.06.11.26.51.31.62a.6.6,0,0,0-.36-.31.81.81,0,0,0-.29,0h0A24.92,24.92,0,0,0,26,105.61s0,.07,0,0,.07-.27.17-.52a7.74,7.74,0,0,1,.65-.94,1.73,1.73,0,0,0,.21-.34l0,.06s0,0,0-.07c0,.15-.16-.43.34-.72.44-.09.36,0,.51,0s.07,0,.21.2c.47.12-.92,1.47-.65.87a.54.54,0,0,1-.17-.08Z"/><path class="cls-3" d="M52.65,104.72A1.65,1.65,0,0,0,53,106a31.71,31.71,0,0,1,3.25,6.35,5.08,5.08,0,0,1,.43,2.47,5.37,5.37,0,0,1-1.83,2.74l-5.2,5.07a86.65,86.65,0,0,1,16.9,4.7,1.92,1.92,0,0,0,1,.2c1.09-.18,2.24-1.61,3.16-2.19a30.66,30.66,0,0,1,4-2c2.46-1.06,5.63-1.91,7.62-3.74-.53.45-3.68-.75-4.35-1-3.69-1.21-7.59-2.1-11.21-3.45-3.93-1.46-6.05-5.75-6.64-9.65-.26-1.72-.33-4.45-1.59-5.75a27.2,27.2,0,0,0-2.86,2.2C54.55,102.82,52.87,103.58,52.65,104.72Z"/><path d="M53.21,104.83a1.12,1.12,0,0,0,.25.84,30.51,30.51,0,0,1,3.24,6.07c1.74,3.64-.24,5.26-2.75,7.56q-2,1.86-4,3.68l-.26-.85a77.81,77.81,0,0,1,17.65,4.5c1-.3,1.57-1.13,2.53-1.81A23.08,23.08,0,0,1,74,122.73c2.7-1.13,5.63-1.72,7.93-3.49l.66.75a1.44,1.44,0,0,1-.87.24,15.13,15.13,0,0,1-3.82-.93c-3.77-1.16-7.66-2.09-11.37-3.48-3.29-1.21-5.45-4.34-6.45-7.56-1-2.57-.33-6-2-8.13l.62.08c-1.55,1-3,2.47-4.58,3.47a2.3,2.3,0,0,0-.94,1.15Zm-1.12-.22a3.28,3.28,0,0,1,1.4-1.82c1.73-1.06,3-2.3,4.72-3.43l.36-.21c2.3,2.33,1.57,5.92,2.66,8.74s2.86,5.67,5.75,6.71c1,.35,2,.71,3,1,2.45.73,5.91,1.65,8.29,2.51a21,21,0,0,0,3.63,1.12s.7.75.65.76c-4.08,3.68-9.56,3.86-13.35,7.68a2.81,2.81,0,0,1-2.89.56,113.49,113.49,0,0,0-16.81-5.11l-.92-.21.66-.64q1.86-2,3.78-3.88c1.21-1.3,2.84-2.49,2.92-3.85-.13-2.39-1.69-4.93-2.81-7.09-.48-.92-1.31-1.65-1.08-2.84Z"/><path class="cls-4" d="M66.05,120.58a4.21,4.21,0,0,0,.06-.79,1.7,1.7,0,0,0-.28-1.16,1.6,1.6,0,0,0-1-.47,2.06,2.06,0,0,0-2,.55,1.75,1.75,0,0,0-.21,1.32.54.54,0,0,0,.08.28.75.75,0,0,0,.2.15,5.6,5.6,0,0,0,2.46.69C65.86,121.17,66,121,66.05,120.58Z"/><path class="cls-4" d="M19.73,106.66l0,0c0,.07-.09.19-.1.23s0,0,0,0l0,0,0,0,.25-.47s0,0,0-.08.11-.22.1-.21l-.11.19-.11.18Z"/><path class="cls-4" d="M27.61,103.63l0,.09a1.35,1.35,0,0,0-.08.39s.06,0,.12,0,0,0,0,0l0,0,.39-.71.06-.12a2.64,2.64,0,0,0,.07-.35l-.2.26a1.69,1.69,0,0,0-.2.25A1.32,1.32,0,0,0,27.61,103.63Z"/><circle id="eye2" cx="26.61" cy="17.62" r="2.5"/><circle id="eye1" cx="49.61" cy="13.62" r="2.5"/><path class="cls-5" d="M43.67,18.28S56.2,20.52,55,22.85c0,0-13,16.06-30.28,8,0,0,.13-.79,12-10.43,0,0,1-.84,2.48-4.75C39.25,15.67,39.38,14.88,43.67,18.28Z"/><path class="cls-6" d="M39.25,15.67c-1.43,3.91-2.48,4.75-2.48,4.75-11.9,9.64-12,10.43-12,10.43C42,38.91,55,22.85,55,22.85c1.18-2.33-11.35-4.57-11.35-4.57C39.38,14.88,39.25,15.67,39.25,15.67Z"/><path d="M24.64,30.37a60.25,60.25,0,0,0,14.77-5,43.55,43.55,0,0,1,15.6-3l0,1a48.79,48.79,0,0,0-15.12,3.19,44.58,44.58,0,0,1-7.37,2.94,75.74,75.74,0,0,1-7.7,1.87l-.2-1Z"/><path d="M24.09,44.5A12.63,12.63,0,0,1,25,47.8,45.66,45.66,0,0,1,25.35,58l-.48,0c-.33-2.26-.33-4.52-.68-6.69-.22-1.59-.56-3.34-.86-4.92a4.88,4.88,0,0,1-.21-1.67l1-.23Z"/><path d="M5.67,56.26c2.16,1.7,4.2,3.54,6.22,5.4s4.34,3.92,5,6.69l-.6.28a12.54,12.54,0,0,0-2.32-3.18C10.92,62.76,7.77,60,5,57l.69-.73Z"/><path d="M6.86,79.06c2.58.93,5.1,1.5,7.77,2.2l0,.71a12.31,12.31,0,0,1-8.18-2l.45-.9Z"/><polygon points="13.92 93.11 18.03 93.33 18.03 93.9 13.92 94.11 13.92 93.11 13.92 93.11"/></g></g></svg>